<svg version="1.1" viewBox="0.0 0.0 960.0 540.0" fill="none" stroke="none" stroke-linecap="square" stroke-miterlimit="10" xmlns:xlink="http://www.w3.org/1999/xlink" xmlns="http://www.w3.org/2000/svg"><clipPath id="g1fb5e7b80aa_0_26.0"><path d="m0 0l960.0 0l0 540.0l-960.0 0l0 -540.0z" clip-rule="nonzero"/></clipPath><g clip-path="url(#g1fb5e7b80aa_0_26.0)"><path fill="#ffffff" d="m0 0l960.0 0l0 540.0l-960.0 0z" fill-rule="evenodd"/><path fill="#808080" d="m61.412075 246.00024l0 0c0 -6.627548 5.372692 -12.000244 12.00024 -12.000244l112.9759 0c3.182663 0 6.23497 1.2643127 8.485443 3.5147858c2.2504883 2.2504883 3.514801 5.3027954 3.514801 8.485458l0 47.99951c0 6.6275635 -5.372696 12.000244 -12.000244 12.000244l-112.9759 0l0 0c-6.627548 0 -12.00024 -5.3726807 -12.00024 -12.000244z" fill-rule="evenodd"/><path stroke="#808080" stroke-width="1.0" stroke-linejoin="round" stroke-linecap="butt" d="m61.412075 246.00024l0 0c0 -6.627548 5.372692 -12.000244 12.00024 -12.000244l112.9759 0c3.182663 0 6.23497 1.2643127 8.485443 3.5147858c2.2504883 2.2504883 3.514801 5.3027954 3.514801 8.485458l0 47.99951c0 6.6275635 -5.372696 12.000244 -12.000244 12.000244l-112.9759 0l0 0c-6.627548 0 -12.00024 -5.3726807 -12.00024 -12.000244z" fill-rule="evenodd"/><path fill="#3c78d8" d="m198.37796 246.00024l0 0c0 -6.627548 5.3726807 -12.000244 12.000229 -12.000244l84.25148 0c3.1826782 0 6.2349854 1.2643127 8.485474 3.5147858c2.2504578 2.2504883 3.5147705 5.3027954 3.5147705 8.485458l0 47.99951c0 6.6275635 -5.3726807 12.000244 -12.000244 12.000244l-84.25148 0l0 0c-6.627548 0 -12.000229 -5.3726807 -12.000229 -12.000244z" fill-rule="evenodd"/><path stroke="#3c78d8" stroke-width="1.0" stroke-linejoin="round" stroke-linecap="butt" d="m198.37796 246.00024l0 0c0 -6.627548 5.3726807 -12.000244 12.000229 -12.000244l84.25148 0c3.1826782 0 6.2349854 1.2643127 8.485474 3.5147858c2.2504578 2.2504883 3.5147705 5.3027954 3.5147705 8.485458l0 47.99951c0 6.6275635 -5.3726807 12.000244 -12.000244 12.000244l-84.25148 0l0 0c-6.627548 0 -12.000229 -5.3726807 -12.000229 -12.000244z" fill-rule="evenodd"/><path fill="#808080" d="m306.6299 246.00024l0 0c0 -6.627548 5.372711 -12.000244 12.000244 -12.000244l112.97589 0c3.1826782 0 6.2349854 1.2643127 8.485474 3.5147858c2.2504578 2.2504883 3.5147705 5.3027954 3.5147705 8.485458l0 47.99951c0 6.6275635 -5.3726807 12.000244 -12.000244 12.000244l-112.97589 0l0 0c-6.627533 0 -12.000244 -5.3726807 -12.000244 -12.000244z" fill-rule="evenodd"/><path stroke="#808080" stroke-width="1.0" stroke-linejoin="round" stroke-linecap="butt" d="m306.6299 246.00024l0 0c0 -6.627548 5.372711 -12.000244 12.000244 -12.000244l112.97589 0c3.1826782 0 6.2349854 1.2643127 8.485474 3.5147858c2.2504578 2.2504883 3.5147705 5.3027954 3.5147705 8.485458l0 47.99951c0 6.6275635 -5.3726807 12.000244 -12.000244 12.000244l-112.97589 0l0 0c-6.627533 0 -12.000244 -5.3726807 -12.000244 -12.000244z" fill-rule="evenodd"/><path fill="#e69138" d="m443.6063 246.00024l0 0c0 -6.627548 5.372711 -12.000244 12.000244 -12.000244l128.31448 0c3.1826782 0 6.2349854 1.2643127 8.485474 3.5147858c2.2504883 2.2504883 3.5147705 5.3027954 3.5147705 8.485458l0 47.99951c0 6.6275635 -5.3726807 12.000244 -12.000244 12.000244l-128.31448 0c-6.627533 0 -12.000244 -5.3726807 -12.000244 -12.000244z" fill-rule="evenodd"/><path stroke="#e69138" stroke-width="1.0" stroke-linejoin="round" stroke-linecap="butt" d="m443.6063 246.00024l0 0c0 -6.627548 5.372711 -12.000244 12.000244 -12.000244l128.31448 0c3.1826782 0 6.2349854 1.2643127 8.485474 3.5147858c2.2504883 2.2504883 3.5147705 5.3027954 3.5147705 8.485458l0 47.99951c0 6.6275635 -5.3726807 12.000244 -12.000244 12.000244l-128.31448 0c-6.627533 0 -12.000244 -5.3726807 -12.000244 -12.000244z" fill-rule="evenodd"/><path fill="#808080" d="m595.92126 246.00024l0 0c0 -6.627548 5.3726807 -12.000244 12.000244 -12.000244l170.42468 0c3.1826782 0 6.2349854 1.2643127 8.485474 3.5147858c2.2504883 2.2504883 3.5147705 5.3027954 3.5147705 8.485458l0 47.99951c0 6.6275635 -5.3726807 12.000244 -12.000244 12.000244l-170.42468 0c-6.6275635 0 -12.000244 -5.3726807 -12.000244 -12.000244z" fill-rule="evenodd"/><path stroke="#808080" stroke-width="1.0" stroke-linejoin="round" stroke-linecap="butt" d="m595.92126 246.00024l0 0c0 -6.627548 5.3726807 -12.000244 12.000244 -12.000244l170.42468 0c3.1826782 0 6.2349854 1.2643127 8.485474 3.5147858c2.2504883 2.2504883 3.5147705 5.3027954 3.5147705 8.485458l0 47.99951c0 6.6275635 -5.3726807 12.000244 -12.000244 12.000244l-170.42468 0c-6.6275635 0 -12.000244 -5.3726807 -12.000244 -12.000244z" fill-rule="evenodd"/><path fill="#3c78d8" d="m790.33594 246.00024l0 0c0 -6.627548 5.3726807 -12.000244 12.000244 -12.000244l84.251526 0c3.1826172 0 6.2349243 1.2643127 8.485413 3.5147858c2.2504883 2.2504883 3.5148315 5.3027954 3.5148315 8.485458l0 47.99951c0 6.6275635 -5.3727417 12.000244 -12.000244 12.000244l-84.251526 0l0 0c-6.6275635 0 -12.000244 -5.3726807 -12.000244 -12.000244z" fill-rule="evenodd"/><path stroke="#3c78d8" stroke-width="1.0" stroke-linejoin="round" stroke-linecap="butt" d="m790.33594 246.00024l0 0c0 -6.627548 5.3726807 -12.000244 12.000244 -12.000244l84.251526 0c3.1826172 0 6.2349243 1.2643127 8.485413 3.5147858c2.2504883 2.2504883 3.5148315 5.3027954 3.5148315 8.485458l0 47.99951c0 6.6275635 -5.3727417 12.000244 -12.000244 12.000244l-84.251526 0l0 0c-6.6275635 0 -12.000244 -5.3726807 -12.000244 -12.000244z" fill-rule="evenodd"/><path fill="#000000" fill-opacity="0.0" d="m89.6168 182.28346l80.56693 0l0 51.716537l-80.56693 0z" fill-rule="evenodd"/><path fill="#e69138" d="m99.8043 211.97722l3.640625 -0.375q0.15625 1.234375 0.921875 1.953125q0.765625 0.71875 1.765625 0.71875q1.15625 0 1.9375 -0.921875q0.796875 -0.9375 0.796875 -2.8125q0 -1.75 -0.78125 -2.625q-0.78125 -0.890625 -2.046875 -0.890625q-1.578125 0 -2.828125 1.40625l-2.96875 -0.4375l1.875 -9.9375l9.671875 0l0 3.4375l-6.890625 0l-0.578125 3.234375q1.21875 -0.609375 2.5 -0.609375q2.4375 0 4.125 1.765625q1.6875 1.765625 1.6875 4.59375q0 2.359375 -1.359375 4.203125q-1.859375 2.53125 -5.171875 2.53125q-2.640625 0 -4.3125 -1.421875q-1.65625 -1.421875 -1.984375 -3.8125zm15.543686 4.90625l0 -3.65625l3.671875 0l0 3.65625l-3.671875 0zm7.40596 0l0 -3.65625l3.671875 0l0 3.65625l-3.671875 0zm15.984077 0l-3.65625 0l0 -13.78125q-2.0 1.875 -4.71875 2.765625l0 -3.3125q1.4375 -0.46875 3.109375 -1.78125q1.671875 -1.3125 2.296875 -3.046875l2.96875 0l0 19.15625zm11.653061 -19.15625q2.78125 0 4.34375 1.96875q1.859375 2.34375 1.859375 7.78125q0 5.40625 -1.875 7.78125q-1.546875 1.953125 -4.328125 1.953125q-2.78125 0 -4.484375 -2.140625q-1.703125 -2.140625 -1.703125 -7.640625q0 -5.390625 1.875 -7.75q1.546875 -1.953125 4.3125 -1.953125zm0 3.03125q-0.65625 0 -1.1875 0.421875q-0.515625 0.421875 -0.796875 1.515625q-0.375 1.421875 -0.375 4.78125q0 3.359375 0.328125 4.609375q0.34375 1.25 0.859375 1.671875q0.515625 0.421875 1.171875 0.421875q0.671875 0 1.1875 -0.421875q0.515625 -0.421875 0.8125 -1.515625q0.375 -1.40625 0.375 -4.765625q0 -3.359375 -0.34375 -4.609375q-0.34375 -1.265625 -0.859375 -1.6875q-0.5 -0.421875 -1.171875 -0.421875z" fill-rule="nonzero"/><path fill="#000000" fill-opacity="0.0" d="m89.6168 306.0l80.56693 0l0 51.716522l-80.56693 0z" fill-rule="evenodd"/><path fill="#3c78d8" d="m99.6168 335.5375l3.546875 -0.4375q0.171875 1.359375 0.90625 2.078125q0.75 0.71875 1.796875 0.71875q1.125 0 1.90625 -0.859375q0.78125 -0.859375 0.78125 -2.328125q0 -1.375 -0.75 -2.171875q-0.734375 -0.8125 -1.8125 -0.8125q-0.703125 0 -1.671875 0.265625l0.40625 -2.96875q1.484375 0.03125 2.265625 -0.640625q0.78125 -0.6875 0.78125 -1.828125q0 -0.953125 -0.578125 -1.53125q-0.578125 -0.578125 -1.53125 -0.578125q-0.921875 0 -1.59375 0.65625q-0.65625 0.65625 -0.8125 1.90625l-3.359375 -0.578125q0.34375 -1.734375 1.046875 -2.765625q0.71875 -1.03125 1.984375 -1.625q1.265625 -0.59375 2.84375 -0.59375q2.703125 0 4.328125 1.71875q1.34375 1.40625 1.34375 3.171875q0 2.515625 -2.75 4.015625q1.640625 0.34375 2.609375 1.578125q0.984375 1.21875 0.984375 2.9375q0 2.515625 -1.828125 4.296875q-1.828125 1.765625 -4.5625 1.765625q-2.59375 0 -4.296875 -1.484375q-1.703125 -1.5 -1.984375 -3.90625zm15.731186 5.0625l0 -3.65625l3.671875 0l0 3.65625l-3.671875 0zm7.40596 0l0 -3.65625l3.671875 0l0 3.65625l-3.671875 0zm9.765327 -10.296875q-1.421875 -0.59375 -2.0625 -1.640625q-0.640625 -1.046875 -0.640625 -2.296875q0 -2.140625 1.484375 -3.53125q1.5 -1.390625 4.234375 -1.390625q2.734375 0 4.234375 1.390625q1.5 1.390625 1.5 3.53125q0 1.328125 -0.6875 2.359375q-0.6875 1.03125 -1.9375 1.578125q1.578125 0.640625 2.40625 1.875q0.828125 1.21875 0.828125 2.8125q0 2.640625 -1.6875 4.296875q-1.6875 1.65625 -4.484375 1.65625q-2.59375 0 -4.328125 -1.375q-2.046875 -1.609375 -2.046875 -4.421875q0 -1.546875 0.765625 -2.84375q0.765625 -1.296875 2.421875 -2.0zm0.765625 -3.6875q0 1.09375 0.609375 1.71875q0.625 0.609375 1.640625 0.609375q1.046875 0 1.671875 -0.625q0.625 -0.625 0.625 -1.703125q0 -1.03125 -0.625 -1.640625q-0.609375 -0.625 -1.625 -0.625q-1.046875 0 -1.671875 0.625q-0.625 0.625 -0.625 1.640625zm-0.34375 8.171875q0 1.515625 0.765625 2.359375q0.78125 0.84375 1.9375 0.84375q1.140625 0 1.875 -0.8125q0.75 -0.8125 0.75 -2.34375q0 -1.34375 -0.765625 -2.15625q-0.75 -0.8125 -1.90625 -0.8125q-1.34375 0 -2.0 0.921875q-0.65625 0.921875 -0.65625 2.0z" fill-rule="nonzero"/><path fill="#000000" fill-opacity="0.0" d="m212.22572 306.0l80.56694 0l0 51.716522l-80.56694 0z" fill-rule="evenodd"/><path fill="#3c78d8" d="m222.42885 336.19376l3.546875 -0.390625q0.125 1.078125 0.671875 1.59375q0.546875 0.515625 1.453125 0.515625q1.125 0 1.921875 -1.03125q0.796875 -1.046875 1.015625 -4.328125q-1.375 1.609375 -3.453125 1.609375q-2.25 0 -3.890625 -1.734375q-1.625 -1.75 -1.625 -4.53125q0 -2.90625 1.71875 -4.671875q1.734375 -1.78125 4.40625 -1.78125q2.890625 0 4.75 2.25q1.875 2.234375 1.875 7.375q0 5.234375 -1.953125 7.5625q-1.9375 2.3125 -5.046875 2.3125q-2.234375 0 -3.625 -1.1875q-1.375 -1.203125 -1.765625 -3.5625zm8.28125 -8.0q0 -1.765625 -0.8125 -2.734375q-0.8125 -0.984375 -1.875 -0.984375q-1.015625 0 -1.6875 0.796875q-0.671875 0.796875 -0.671875 2.625q0 1.84375 0.71875 2.71875q0.734375 0.859375 1.828125 0.859375q1.0625 0 1.78125 -0.828125q0.71875 -0.84375 0.71875 -2.453125zm7.246811 12.40625l0 -3.65625l3.671875 0l0 3.65625l-3.671875 0zm7.40596 0l0 -3.65625l3.671875 0l0 3.65625l-3.671875 0zm15.984085 0l-3.65625 0l0 -13.78125q-2.0 1.875 -4.71875 2.765625l0 -3.3125q1.4375 -0.46875 3.109375 -1.78125q1.671875 -1.3125 2.296875 -3.046875l2.96875 0l0 19.15625zm13.353577 0l-3.65625 0l0 -13.78125q-2.0 1.875 -4.71875 2.765625l0 -3.3125q1.4375 -0.46875 3.109375 -1.78125q1.671875 -1.3125 2.296875 -3.046875l2.96875 0l0 19.15625z" fill-rule="nonzero"/><path fill="#000000" fill-opacity="0.0" d="m328.64566 182.28346l92.944885 0l0 51.716537l-92.944885 0z" fill-rule="evenodd"/><path fill="#e69138" d="m348.13004 216.88347l-3.65625 0l0 -13.78125q-2.0 1.875 -4.71875 2.765625l0 -3.3125q1.4375 -0.46875 3.109375 -1.78125q1.671875 -1.3125 2.296875 -3.046875l2.96875 0l0 19.15625zm13.353577 0l-3.65625 0l0 -13.78125q-2.0 1.875 -4.71875 2.765625l0 -3.3125q1.4375 -0.46875 3.109375 -1.78125q1.671875 -1.3125 2.296875 -3.046875l2.96875 0l0 19.15625zm6.246826 0l0 -3.65625l3.671875 0l0 3.65625l-3.671875 0zm7.405945 0l0 -3.65625l3.671875 0l0 3.65625l-3.671875 0zm15.9841 0l-3.65625 0l0 -13.78125q-2.0 1.875 -4.71875 2.765625l0 -3.3125q1.4375 -0.46875 3.109375 -1.78125q1.671875 -1.3125 2.296875 -3.046875l2.96875 0l0 19.15625zm5.5280457 -4.90625l3.640625 -0.375q0.15625 1.234375 0.921875 1.953125q0.765625 0.71875 1.765625 0.71875q1.15625 0 1.9375 -0.921875q0.796875 -0.9375 0.796875 -2.8125q0 -1.75 -0.78125 -2.625q-0.78125 -0.890625 -2.046875 -0.890625q-1.578125 0 -2.828125 1.40625l-2.96875 -0.4375l1.875 -9.9375l9.671875 0l0 3.4375l-6.890625 0l-0.578125 3.234375q1.21875 -0.609375 2.5 -0.609375q2.4375 0 4.125 1.765625q1.6875 1.765625 1.6875 4.59375q0 2.359375 -1.359375 4.203125q-1.859375 2.53125 -5.171875 2.53125q-2.640625 0 -4.3125 -1.421875q-1.65625 -1.421875 -1.984375 -3.8125z" fill-rule="nonzero"/><path fill="#000000" fill-opacity="0.0" d="m473.29135 182.28346l94.33072 0l0 51.716537l-94.33072 0z" fill-rule="evenodd"/><path fill="#e69138" d="m492.77573 216.88347l-3.65625 0l0 -13.78125q-2.0 1.875 -4.71875 2.765625l0 -3.3125q1.4375 -0.46875 3.109375 -1.78125q1.671875 -1.3125 2.296875 -3.046875l2.96875 0l0 19.15625zm17.85617 -14.40625l-3.53125 0.390625q-0.125 -1.09375 -0.671875 -1.609375q-0.546875 -0.53125 -1.421875 -0.53125q-1.15625 0 -1.96875 1.046875q-0.796875 1.046875 -1.0 4.328125q1.359375 -1.609375 3.390625 -1.609375q2.296875 0 3.921875 1.75q1.640625 1.734375 1.640625 4.5q0 2.921875 -1.71875 4.703125q-1.71875 1.765625 -4.40625 1.765625q-2.890625 0 -4.765625 -2.25q-1.859375 -2.25 -1.859375 -7.359375q0 -5.25 1.9375 -7.5625q1.953125 -2.3125 5.046875 -2.3125q2.171875 0 3.59375 1.21875q1.4375 1.21875 1.8125 3.53125zm-8.28125 7.96875q0 1.796875 0.8125 2.765625q0.828125 0.96875 1.875 0.96875q1.015625 0 1.6875 -0.796875q0.6875 -0.796875 0.6875 -2.609375q0 -1.859375 -0.734375 -2.71875q-0.71875 -0.875 -1.8125 -0.875q-1.0625 0 -1.796875 0.828125q-0.71875 0.828125 -0.71875 2.4375zm11.496826 6.4375l0 -3.65625l3.671875 0l0 3.65625l-3.671875 0zm7.405945 0l0 -3.65625l3.671875 0l0 3.65625l-3.671875 0zm18.98407 -3.390625l0 3.390625l-12.828125 0q0.21875 -1.921875 1.25 -3.640625q1.046875 -1.734375 4.125 -4.578125q2.46875 -2.3125 3.03125 -3.125q0.75 -1.140625 0.75 -2.25q0 -1.21875 -0.65625 -1.875q-0.65625 -0.65625 -1.8125 -0.65625q-1.140625 0 -1.828125 0.6875q-0.671875 0.6875 -0.78125 2.296875l-3.640625 -0.375q0.328125 -3.015625 2.046875 -4.328125q1.71875 -1.3125 4.296875 -1.3125q2.8125 0 4.421875 1.53125q1.625 1.515625 1.625 3.78125q0 1.28125 -0.46875 2.453125q-0.453125 1.15625 -1.453125 2.4375q-0.671875 0.84375 -2.40625 2.4375q-1.71875 1.578125 -2.1875 2.109375q-0.453125 0.515625 -0.75 1.015625l7.265625 0zm14.824951 0l0 3.390625l-12.828125 0q0.21875 -1.921875 1.25 -3.640625q1.046875 -1.734375 4.125 -4.578125q2.46875 -2.3125 3.03125 -3.125q0.75 -1.140625 0.75 -2.25q0 -1.21875 -0.65625 -1.875q-0.65625 -0.65625 -1.8125 -0.65625q-1.140625 0 -1.828125 0.6875q-0.671875 0.6875 -0.78125 2.296875l-3.640625 -0.375q0.328125 -3.015625 2.046875 -4.328125q1.71875 -1.3125 4.296875 -1.3125q2.8125 0 4.421875 1.53125q1.625 1.515625 1.625 3.78125q0 1.28125 -0.46875 2.453125q-0.453125 1.15625 -1.453125 2.4375q-0.671875 0.84375 -2.40625 2.4375q-1.71875 1.578125 -2.1875 2.109375q-0.453125 0.515625 -0.75 1.015625l7.265625 0z" fill-rule="nonzero"/><path fill="#000000" fill-opacity="0.0" d="m652.8504 182.28346l94.33069 0l0 51.716537l-94.33069 0z" fill-rule="evenodd"/><path fill="#e69138" d="m675.3348 213.49284l0 3.390625l-12.828125 0q0.21875 -1.921875 1.25 -3.640625q1.046875 -1.734375 4.125 -4.578125q2.46875 -2.3125 3.03125 -3.125q0.75 -1.140625 0.75 -2.25q0 -1.21875 -0.65625 -1.875q-0.65625 -0.65625 -1.8125 -0.65625q-1.140625 0 -1.828125 0.6875q-0.671875 0.6875 -0.78125 2.296875l-3.640625 -0.375q0.328125 -3.015625 2.046875 -4.328125q1.71875 -1.3125 4.296875 -1.3125q2.8125 0 4.421875 1.53125q1.625 1.515625 1.625 3.78125q0 1.28125 -0.46875 2.453125q-0.453125 1.15625 -1.453125 2.4375q-0.671875 0.84375 -2.40625 2.4375q-1.71875 1.578125 -2.1875 2.109375q-0.453125 0.515625 -0.75 1.015625l7.265625 0zm2.3405762 -1.671875l3.546875 -0.4375q0.171875 1.359375 0.90625 2.078125q0.75 0.71875 1.796875 0.71875q1.125 0 1.90625 -0.859375q0.78125 -0.859375 0.78125 -2.328125q0 -1.375 -0.75 -2.171875q-0.734375 -0.8125 -1.8125 -0.8125q-0.703125 0 -1.671875 0.265625l0.40625 -2.96875q1.484375 0.03125 2.265625 -0.640625q0.78125 -0.6875 0.78125 -1.828125q0 -0.953125 -0.578125 -1.53125q-0.578125 -0.578125 -1.53125 -0.578125q-0.921875 0 -1.59375 0.65625q-0.65625 0.65625 -0.8125 1.90625l-3.359375 -0.578125q0.34375 -1.734375 1.046875 -2.765625q0.71875 -1.03125 1.984375 -1.625q1.265625 -0.59375 2.84375 -0.59375q2.703125 0 4.328125 1.71875q1.34375 1.40625 1.34375 3.171875q0 2.515625 -2.75 4.015625q1.640625 0.34375 2.609375 1.578125q0.984375 1.21875 0.984375 2.9375q0 2.515625 -1.828125 4.296875q-1.828125 1.765625 -4.5625 1.765625q-2.59375 0 -4.296875 -1.484375q-1.703125 -1.5 -1.984375 -3.90625zm15.73114 5.0625l0 -3.65625l3.671875 0l0 3.65625l-3.671875 0zm7.406006 0l0 -3.65625l3.671875 0l0 3.65625l-3.671875 0zm6.499695 -5.0625l3.546875 -0.4375q0.171875 1.359375 0.90625 2.078125q0.75 0.71875 1.796875 0.71875q1.125 0 1.90625 -0.859375q0.78125 -0.859375 0.78125 -2.328125q0 -1.375 -0.75 -2.171875q-0.734375 -0.8125 -1.8125 -0.8125q-0.703125 0 -1.671875 0.265625l0.40625 -2.96875q1.484375 0.03125 2.265625 -0.640625q0.78125 -0.6875 0.78125 -1.828125q0 -0.953125 -0.578125 -1.53125q-0.578125 -0.578125 -1.53125 -0.578125q-0.921875 0 -1.59375 0.65625q-0.65625 0.65625 -0.8125 1.90625l-3.359375 -0.578125q0.34375 -1.734375 1.046875 -2.765625q0.71875 -1.03125 1.984375 -1.625q1.265625 -0.59375 2.84375 -0.59375q2.703125 0 4.328125 1.71875q1.34375 1.40625 1.34375 3.171875q0 2.515625 -2.75 4.015625q1.640625 0.34375 2.609375 1.578125q0.984375 1.21875 0.984375 2.9375q0 2.515625 -1.828125 4.296875q-1.828125 1.765625 -4.5625 1.765625q-2.59375 0 -4.296875 -1.484375q-1.703125 -1.5 -1.984375 -3.90625zm27.309326 1.671875l0 3.390625l-12.828125 0q0.21875 -1.921875 1.25 -3.640625q1.046875 -1.734375 4.125 -4.578125q2.46875 -2.3125 3.03125 -3.125q0.75 -1.140625 0.75 -2.25q0 -1.21875 -0.65625 -1.875q-0.65625 -0.65625 -1.8125 -0.65625q-1.140625 0 -1.828125 0.6875q-0.671875 0.6875 -0.78125 2.296875l-3.640625 -0.375q0.328125 -3.015625 2.046875 -4.328125q1.71875 -1.3125 4.296875 -1.3125q2.8125 0 4.421875 1.53125q1.625 1.515625 1.625 3.78125q0 1.28125 -0.46875 2.453125q-0.453125 1.15625 -1.453125 2.4375q-0.671875 0.84375 -2.40625 2.4375q-1.71875 1.578125 -2.1875 2.109375q-0.453125 0.515625 -0.75 1.015625l7.265625 0z" fill-rule="nonzero"/><path fill="#000000" fill-opacity="0.0" d="m328.64566 306.0l94.33072 0l0 51.716522l-94.33072 0z" fill-rule="evenodd"/><path fill="#3c78d8" d="m348.13004 340.6l-3.65625 0l0 -13.78125q-2.0 1.875 -4.71875 2.765625l0 -3.3125q1.4375 -0.46875 3.109375 -1.78125q1.671875 -1.3125 2.296875 -3.046875l2.96875 0l0 19.15625zm17.856201 -14.40625l-3.53125 0.390625q-0.125 -1.09375 -0.671875 -1.609375q-0.546875 -0.53125 -1.421875 -0.53125q-1.15625 0 -1.96875 1.046875q-0.796875 1.046875 -1.0 4.328125q1.359375 -1.609375 3.390625 -1.609375q2.296875 0 3.921875 1.75q1.640625 1.734375 1.640625 4.5q0 2.921875 -1.71875 4.703125q-1.71875 1.765625 -4.40625 1.765625q-2.890625 0 -4.765625 -2.25q-1.859375 -2.25 -1.859375 -7.359375q0 -5.25 1.9375 -7.5625q1.953125 -2.3125 5.046875 -2.3125q2.171875 0 3.59375 1.21875q1.4375 1.21875 1.8125 3.53125zm-8.28125 7.96875q0 1.796875 0.8125 2.765625q0.828125 0.96875 1.875 0.96875q1.015625 0 1.6875 -0.796875q0.6875 -0.796875 0.6875 -2.609375q0 -1.859375 -0.734375 -2.71875q-0.71875 -0.875 -1.8125 -0.875q-1.0625 0 -1.796875 0.828125q-0.71875 0.828125 -0.71875 2.4375zm11.496796 6.4375l0 -3.65625l3.671875 0l0 3.65625l-3.671875 0zm7.4059753 0l0 -3.65625l3.671875 0l0 3.65625l-3.671875 0zm18.98407 -3.390625l0 3.390625l-12.828125 0q0.21875 -1.921875 1.25 -3.640625q1.046875 -1.734375 4.125 -4.578125q2.46875 -2.3125 3.03125 -3.125q0.75 -1.140625 0.75 -2.25q0 -1.21875 -0.65625 -1.875q-0.65625 -0.65625 -1.8125 -0.65625q-1.140625 0 -1.828125 0.6875q-0.671875 0.6875 -0.78125 2.296875l-3.640625 -0.375q0.328125 -3.015625 2.046875 -4.328125q1.71875 -1.3125 4.296875 -1.3125q2.8125 0 4.421875 1.53125q1.625 1.515625 1.625 3.78125q0 1.28125 -0.46875 2.453125q-0.453125 1.15625 -1.453125 2.4375q-0.671875 0.84375 -2.40625 2.4375q-1.71875 1.578125 -2.1875 2.109375q-0.453125 0.515625 -0.75 1.015625l7.265625 0zm8.653076 -15.765625q2.78125 0 4.34375 1.96875q1.859375 2.34375 1.859375 7.78125q0 5.40625 -1.875 7.78125q-1.546875 1.953125 -4.328125 1.953125q-2.78125 0 -4.484375 -2.140625q-1.703125 -2.140625 -1.703125 -7.640625q0 -5.390625 1.875 -7.75q1.546875 -1.953125 4.3125 -1.953125zm0 3.03125q-0.65625 0 -1.1875 0.421875q-0.515625 0.421875 -0.796875 1.515625q-0.375 1.421875 -0.375 4.78125q0 3.359375 0.328125 4.609375q0.34375 1.25 0.859375 1.671875q0.515625 0.421875 1.171875 0.421875q0.671875 0 1.1875 -0.421875q0.515625 -0.421875 0.8125 -1.515625q0.375 -1.40625 0.375 -4.765625q0 -3.359375 -0.34375 -4.609375q-0.34375 -1.265625 -0.859375 -1.6875q-0.5 -0.421875 -1.171875 -0.421875z" fill-rule="nonzero"/><path fill="#000000" fill-opacity="0.0" d="m646.66144 306.0l94.74011 0l0 51.716522l-94.74011 0z" fill-rule="evenodd"/><path fill="#3c78d8" d="m669.1458 337.20938l0 3.390625l-12.828125 0q0.21875 -1.921875 1.25 -3.640625q1.046875 -1.734375 4.125 -4.578125q2.46875 -2.3125 3.03125 -3.125q0.75 -1.140625 0.75 -2.25q0 -1.21875 -0.65625 -1.875q-0.65625 -0.65625 -1.8125 -0.65625q-1.140625 0 -1.828125 0.6875q-0.671875 0.6875 -0.78125 2.296875l-3.640625 -0.375q0.328125 -3.015625 2.046875 -4.328125q1.71875 -1.3125 4.296875 -1.3125q2.8125 0 4.421875 1.53125q1.625 1.515625 1.625 3.78125q0 1.28125 -0.46875 2.453125q-0.453125 1.15625 -1.453125 2.4375q-0.671875 0.84375 -2.40625 2.4375q-1.71875 1.578125 -2.1875 2.109375q-0.453125 0.515625 -0.75 1.015625l7.265625 0zm11.82489 3.390625l-3.65625 0l0 -13.78125q-2.0 1.875 -4.71875 2.765625l0 -3.3125q1.4375 -0.46875 3.109375 -1.78125q1.671875 -1.3125 2.296875 -3.046875l2.96875 0l0 19.15625zm6.246826 0l0 -3.65625l3.671875 0l0 3.65625l-3.671875 0zm7.405945 0l0 -3.65625l3.671875 0l0 3.65625l-3.671875 0zm6.499756 -5.0625l3.546875 -0.4375q0.171875 1.359375 0.90625 2.078125q0.75 0.71875 1.796875 0.71875q1.125 0 1.90625 -0.859375q0.78125 -0.859375 0.78125 -2.328125q0 -1.375 -0.75 -2.171875q-0.734375 -0.8125 -1.8125 -0.8125q-0.703125 0 -1.671875 0.265625l0.40625 -2.96875q1.484375 0.03125 2.265625 -0.640625q0.78125 -0.6875 0.78125 -1.828125q0 -0.953125 -0.578125 -1.53125q-0.578125 -0.578125 -1.53125 -0.578125q-0.921875 0 -1.59375 0.65625q-0.65625 0.65625 -0.8125 1.90625l-3.359375 -0.578125q0.34375 -1.734375 1.046875 -2.765625q0.71875 -1.03125 1.984375 -1.625q1.265625 -0.59375 2.84375 -0.59375q2.703125 0 4.328125 1.71875q1.34375 1.40625 1.34375 3.171875q0 2.515625 -2.75 4.015625q1.640625 0.34375 2.609375 1.578125q0.984375 1.21875 0.984375 2.9375q0 2.515625 -1.828125 4.296875q-1.828125 1.765625 -4.5625 1.765625q-2.59375 0 -4.296875 -1.484375q-1.703125 -1.5 -1.984375 -3.90625zm21.13739 -14.09375q2.78125 0 4.34375 1.96875q1.859375 2.34375 1.859375 7.78125q0 5.40625 -1.875 7.78125q-1.546875 1.953125 -4.328125 1.953125q-2.78125 0 -4.484375 -2.140625q-1.703125 -2.140625 -1.703125 -7.640625q0 -5.390625 1.875 -7.75q1.546875 -1.953125 4.3125 -1.953125zm0 3.03125q-0.65625 0 -1.1875 0.421875q-0.515625 0.421875 -0.796875 1.515625q-0.375 1.421875 -0.375 4.78125q0 3.359375 0.328125 4.609375q0.34375 1.25 0.859375 1.671875q0.515625 0.421875 1.171875 0.421875q0.671875 0 1.1875 -0.421875q0.515625 -0.421875 0.8125 -1.515625q0.375 -1.40625 0.375 -4.765625q0 -3.359375 -0.34375 -4.609375q-0.34375 -1.265625 -0.859375 -1.6875q-0.5 -0.421875 -1.171875 -0.421875z" fill-rule="nonzero"/><path fill="#000000" fill-opacity="0.0" d="m797.9895 306.0l92.944885 0l0 51.716522l-92.944885 0z" fill-rule="evenodd"/><path fill="#3c78d8" d="m817.4739 340.6l-3.65625 0l0 -13.78125q-2.0 1.875 -4.71875 2.765625l0 -3.3125q1.4375 -0.46875 3.109375 -1.78125q1.671875 -1.3125 2.296875 -3.046875l2.96875 0l0 19.15625zm13.353577 0l-3.65625 0l0 -13.78125q-2.0 1.875 -4.71875 2.765625l0 -3.3125q1.4375 -0.46875 3.109375 -1.78125q1.671875 -1.3125 2.296875 -3.046875l2.96875 0l0 19.15625zm6.246826 0l0 -3.65625l3.671875 0l0 3.65625l-3.671875 0zm7.405945 0l0 -3.65625l3.671875 0l0 3.65625l-3.671875 0zm15.98407 0l-3.65625 0l0 -13.78125q-2.0 1.875 -4.71875 2.765625l0 -3.3125q1.4375 -0.46875 3.109375 -1.78125q1.671875 -1.3125 2.296875 -3.046875l2.96875 0l0 19.15625zm17.856201 -14.40625l-3.53125 0.390625q-0.125 -1.09375 -0.671875 -1.609375q-0.546875 -0.53125 -1.421875 -0.53125q-1.15625 0 -1.96875 1.046875q-0.796875 1.046875 -1.0 4.328125q1.359375 -1.609375 3.390625 -1.609375q2.296875 0 3.921875 1.75q1.640625 1.734375 1.640625 4.5q0 2.921875 -1.71875 4.703125q-1.71875 1.765625 -4.40625 1.765625q-2.890625 0 -4.765625 -2.25q-1.859375 -2.25 -1.859375 -7.359375q0 -5.25 1.9375 -7.5625q1.953125 -2.3125 5.046875 -2.3125q2.171875 0 3.59375 1.21875q1.4375 1.21875 1.8125 3.53125zm-8.28125 7.96875q0 1.796875 0.8125 2.765625q0.828125 0.96875 1.875 0.96875q1.015625 0 1.6875 -0.796875q0.6875 -0.796875 0.6875 -2.609375q0 -1.859375 -0.734375 -2.71875q-0.71875 -0.875 -1.8125 -0.875q-1.0625 0 -1.796875 0.828125q-0.71875 0.828125 -0.71875 2.4375z" fill-rule="nonzero"/><path fill="#ff0000" d="m250.50919 152.14174l4.0 0l0 81.85826l-4.0 0z" fill-rule="evenodd"/><path stroke="#ff0000" stroke-width="1.0" stroke-linejoin="round" stroke-linecap="butt" d="m250.50919 152.14174l4.0 0l0 81.85826l-4.0 0z" fill-rule="evenodd"/><path fill="#ff0000" d="m254.50919 156.14174l0 -4.0l586.2677 0l0 4.0z" fill-rule="evenodd"/><path stroke="#ff0000" stroke-width="1.0" stroke-linejoin="round" stroke-linecap="butt" d="m254.50919 156.14174l0 -4.0l586.2677 0l0 4.0z" fill-rule="evenodd"/><path fill="#ff0000" d="m841.1391 152.14174l4.0 0l0 81.85826l-4.0 0z" fill-rule="evenodd"/><path stroke="#ff0000" stroke-width="1.0" stroke-linejoin="round" stroke-linecap="butt" d="m841.1391 152.14174l4.0 0l0 81.85826l-4.0 0z" fill-rule="evenodd"/><path fill="#000000" fill-opacity="0.0" d="m347.2047 77.968506l396.59845 0l0 67.87401l-396.59845 0z" fill-rule="evenodd"/><path fill="#ff0000" d="m376.597 96.727875l10.5625 0q3.578125 0 5.453125 0.546875q2.515625 0.75 4.3125 2.640625q1.796875 1.890625 2.734375 4.640625q0.9375 2.75 0.9375 6.765625q0 3.53125 -0.875 6.09375q-1.078125 3.125 -3.0625 5.0625q-1.5 1.46875 -4.0625 2.28125q-1.921875 0.609375 -5.125 0.609375l-10.875 0l0 -28.640625zm5.78125 4.84375l0 18.96875l4.3125 0q2.421875 0 3.5 -0.265625q1.40625 -0.359375 2.328125 -1.1875q0.9375 -0.84375 1.515625 -2.765625q0.59375 -1.9375 0.59375 -5.25q0 -3.328125 -0.59375 -5.09375q-0.578125 -1.78125 -1.640625 -2.78125q-1.046875 -1.0 -2.671875 -1.34375q-1.203125 -0.28125 -4.75 -0.28125l-2.59375 0zm23.089844 0.234375l0 -5.078125l5.484375 0l0 5.078125l-5.484375 0zm0 23.5625l0 -20.75l5.484375 0l0 20.75l-5.484375 0zm9.175781 -5.921875l5.515625 -0.84375q0.34375 1.609375 1.421875 2.4375q1.078125 0.828125 3.0 0.828125q2.140625 0 3.203125 -0.78125q0.734375 -0.546875 0.734375 -1.46875q0 -0.625 -0.390625 -1.03125q-0.421875 -0.390625 -1.84375 -0.71875q-6.640625 -1.46875 -8.421875 -2.671875q-2.453125 -1.6875 -2.453125 -4.671875q0 -2.703125 2.125 -4.53125q2.125 -1.84375 6.609375 -1.84375q4.25 0 6.3125 1.390625q2.078125 1.390625 2.859375 4.109375l-5.171875 0.953125q-0.328125 -1.21875 -1.265625 -1.859375q-0.921875 -0.640625 -2.640625 -0.640625q-2.171875 0 -3.109375 0.609375q-0.625 0.421875 -0.625 1.109375q0 0.578125 0.546875 1.0q0.75 0.546875 5.125 1.546875q4.390625 0.984375 6.125 2.4375q1.71875 1.453125 1.71875 4.078125q0 2.84375 -2.390625 4.90625q-2.375 2.046875 -7.046875 2.046875q-4.234375 0 -6.703125 -1.71875q-2.46875 -1.71875 -3.234375 -4.671875zm33.69922 -14.828125l0 4.375l-3.75 0l0 8.359375q0 2.546875 0.09375 2.96875q0.109375 0.421875 0.484375 0.703125q0.390625 0.265625 0.9375 0.265625q0.765625 0 2.203125 -0.53125l0.46875 4.25q-1.90625 0.828125 -4.328125 0.828125q-1.484375 0 -2.6875 -0.5q-1.1875 -0.5 -1.75 -1.28125q-0.546875 -0.796875 -0.765625 -2.140625q-0.171875 -0.96875 -0.171875 -3.875l0 -9.046875l-2.515625 0l0 -4.375l2.515625 0l0 -4.109375l5.515625 -3.203125l0 7.3125l3.75 0z" fill-rule="nonzero"/><path fill="#ff0000" d="m451.17902 140.3685l0 -19.078125l3.671875 0l0 19.078125l-3.671875 0zm10.140198 -9.609375l-3.3125 -0.59375q0.5625 -2.0 1.921875 -2.96875q1.375 -0.96875 4.0625 -0.96875q2.453125 0 3.640625 0.578125q1.203125 0.578125 1.6875 1.484375q0.5 0.890625 0.5 3.265625l-0.046875 4.265625q0 1.828125 0.171875 2.703125q0.171875 0.859375 0.65625 1.84375l-3.609375 0q-0.140625 -0.359375 -0.359375 -1.078125q-0.09375 -0.328125 -0.125 -0.4375q-0.9375 0.921875 -2.015625 1.375q-1.0625 0.453125 -2.265625 0.453125q-2.140625 0 -3.375 -1.15625q-1.21875 -1.15625 -1.21875 -2.9375q0 -1.171875 0.546875 -2.078125q0.5625 -0.921875 1.578125 -1.40625q1.015625 -0.484375 2.90625 -0.859375q2.5625 -0.484375 3.5625 -0.890625l0 -0.375q0 -1.046875 -0.53125 -1.5q-0.515625 -0.453125 -1.96875 -0.453125q-0.96875 0 -1.515625 0.390625q-0.546875 0.390625 -0.890625 1.34375zm4.90625 2.96875q-0.703125 0.234375 -2.234375 0.5625q-1.515625 0.328125 -1.984375 0.640625q-0.71875 0.5 -0.71875 1.28125q0 0.765625 0.5625 1.328125q0.578125 0.5625 1.46875 0.5625q0.984375 0 1.890625 -0.65625q0.65625 -0.484375 0.859375 -1.203125q0.15625 -0.46875 0.15625 -1.78125l0 -0.734375zm5.465332 -7.1875l3.890625 0l3.296875 9.8125l3.234375 -9.8125l3.78125 0l-4.875 13.3125l-0.875 2.40625q-0.484375 1.203125 -0.921875 1.84375q-0.4375 0.640625 -1.0 1.03125q-0.5625 0.40625 -1.390625 0.625q-0.828125 0.21875 -1.859375 0.21875q-1.0625 0 -2.078125 -0.21875l-0.328125 -2.859375q0.859375 0.15625 1.546875 0.15625q1.28125 0 1.890625 -0.75q0.609375 -0.734375 0.9375 -1.90625l-5.25 -13.859375zm15.699707 6.71875q0 -1.8125 0.890625 -3.515625q0.90625 -1.71875 2.546875 -2.609375q1.65625 -0.90625 3.6875 -0.90625q3.140625 0 5.140625 2.046875q2.0 2.03125 2.0 5.140625q0 3.140625 -2.03125 5.203125q-2.015625 2.0625 -5.078125 2.0625q-1.90625 0 -3.640625 -0.859375q-1.71875 -0.859375 -2.625 -2.515625q-0.890625 -1.65625 -0.890625 -4.046875zm3.75 0.203125q0 2.046875 0.96875 3.140625q0.984375 1.09375 2.421875 1.09375q1.421875 0 2.390625 -1.09375q0.984375 -1.09375 0.984375 -3.171875q0 -2.03125 -0.984375 -3.125q-0.96875 -1.09375 -2.390625 -1.09375q-1.4375 0 -2.421875 1.09375q-0.96875 1.09375 -0.96875 3.15625zm22.485596 6.90625l0 -2.0625q-0.765625 1.09375 -2.0000305 1.734375q-1.21875 0.640625 -2.578125 0.640625q-1.40625 0 -2.515625 -0.609375q-1.09375 -0.609375 -1.59375 -1.71875q-0.5 -1.109375 -0.5 -3.0625l0 -8.75l3.671875 0l0 6.359375q0 2.90625 0.1875 3.578125q0.203125 0.65625 0.734375 1.046875q0.546875 0.375 1.359375 0.375q0.9375 0 1.6719055 -0.515625q0.75 -0.515625 1.015625 -1.28125q0.28125 -0.765625 0.28125 -3.71875l0 -5.84375l3.65625 0l0 13.828125l-3.390625 0zm13.516785 -13.828125l0 2.921875l-2.5 0l0 5.5625q0 1.703125 0.0625 1.984375q0.078125 0.28125 0.328125 0.46875q0.265625 0.171875 0.625 0.171875q0.515625 0 1.46875 -0.359375l0.3125 2.84375q-1.265625 0.546875 -2.890625 0.546875q-0.984375 0 -1.78125 -0.328125q-0.796875 -0.328125 -1.171875 -0.859375q-0.359375 -0.53125 -0.5 -1.421875q-0.125 -0.640625 -0.125 -2.578125l0 -6.03125l-1.671875 0l0 -2.921875l1.671875 0l0 -2.734375l3.671875 -2.140625l0 4.875l2.5 0z" fill-rule="nonzero"/><path fill="#ff0000" d="m540.7421 122.1185l0 -5.515625l13.703125 -5.390625l-13.703125 -5.34375l0 -5.484375l19.640625 8.5l0 4.6875l-19.640625 8.546875zm23.359375 0l0 -5.515625l13.703125 -5.390625l-13.703125 -5.34375l0 -5.484375l19.640625 8.5l0 4.6875l-19.640625 8.546875zm35.503906 -25.390625l10.5625 0q3.578125 0 5.453125 0.546875q2.515625 0.75 4.3125 2.640625q1.796875 1.890625 2.734375 4.640625q0.9375 2.75 0.9375 6.765625q0 3.53125 -0.875 6.09375q-1.078125 3.125 -3.0625 5.0625q-1.5 1.46875 -4.0625 2.28125q-1.921875 0.609375 -5.125 0.609375l-10.875 0l0 -28.640625zm5.78125 4.84375l0 18.96875l4.3125 0q2.421875 0 3.5 -0.265625q1.40625 -0.359375 2.328125 -1.1875q0.9375 -0.84375 1.515625 -2.765625q0.59375 -1.9375 0.59375 -5.25q0 -3.328125 -0.59375 -5.09375q-0.578125 -1.78125 -1.640625 -2.78125q-1.046875 -1.0 -2.671875 -1.34375q-1.203125 -0.28125 -4.75 -0.28125l-2.59375 0zm23.089844 0.234375l0 -5.078125l5.484375 0l0 5.078125l-5.484375 0zm0 23.5625l0 -20.75l5.484375 0l0 20.75l-5.484375 0zm9.175781 -5.921875l5.515625 -0.84375q0.34375 1.609375 1.421875 2.4375q1.078125 0.828125 3.0 0.828125q2.140625 0 3.203125 -0.78125q0.734375 -0.546875 0.734375 -1.46875q0 -0.625 -0.390625 -1.03125q-0.421875 -0.390625 -1.84375 -0.71875q-6.640625 -1.46875 -8.421875 -2.671875q-2.453125 -1.6875 -2.453125 -4.671875q0 -2.703125 2.125 -4.53125q2.125 -1.84375 6.609375 -1.84375q4.25 0 6.3125 1.390625q2.078125 1.390625 2.859375 4.109375l-5.171875 0.953125q-0.328125 -1.21875 -1.265625 -1.859375q-0.921875 -0.640625 -2.640625 -0.640625q-2.171875 0 -3.109375 0.609375q-0.625 0.421875 -0.625 1.109375q0 0.578125 0.546875 1.0q0.75 0.546875 5.125 1.546875q4.390625 0.984375 6.125 2.4375q1.71875 1.453125 1.71875 4.078125q0 2.84375 -2.390625 4.90625q-2.375 2.046875 -7.046875 2.046875q-4.234375 0 -6.703125 -1.71875q-2.46875 -1.71875 -3.234375 -4.671875zm33.69922 -14.828125l0 4.375l-3.75 0l0 8.359375q0 2.546875 0.09375 2.96875q0.109375 0.421875 0.484375 0.703125q0.390625 0.265625 0.9375 0.265625q0.765625 0 2.203125 -0.53125l0.46875 4.25q-1.90625 0.828125 -4.328125 0.828125q-1.484375 0 -2.6875 -0.5q-1.1875 -0.5 -1.75 -1.28125q-0.546875 -0.796875 -0.765625 -2.140625q-0.171875 -0.96875 -0.171875 -3.875l0 -9.046875l-2.515625 0l0 -4.375l2.515625 0l0 -4.109375l5.515625 -3.203125l0 7.3125l3.75 0z" fill-rule="nonzero"/><path fill="#ff0000" d="m673.7343 126.306l2.71875 0l0 1.625q0.53125 -0.828125 1.4375 -1.34375q0.90625 -0.53125 2.015625 -0.53125q1.921875 0 3.265625 1.515625q1.34375 1.5 1.34375 4.203125q0 2.765625 -1.359375 4.3125q-1.34375 1.53125 -3.265625 1.53125q-0.921875 0 -1.671875 -0.359375q-0.734375 -0.375 -1.5625 -1.25l0 5.5625l-2.921875 0l0 -15.265625zm2.890625 5.34375q0 1.859375 0.734375 2.75q0.75 0.890625 1.8125 0.890625q1.015625 0 1.6875 -0.8125q0.6875 -0.8125 0.6875 -2.6875q0 -1.734375 -0.703125 -2.578125q-0.703125 -0.84375 -1.734375 -0.84375q-1.0625 0 -1.78125 0.828125q-0.703125 0.828125 -0.703125 2.453125zm12.403076 -1.96875l-2.65625 -0.484375q0.453125 -1.59375 1.546875 -2.359375q1.09375 -0.78125 3.25 -0.78125q1.953125 0 2.90625 0.46875q0.96875 0.453125 1.359375 1.171875q0.390625 0.71875 0.390625 2.625l-0.03125 3.40625q0 1.46875 0.125 2.15625q0.140625 0.6875 0.53125 1.484375l-2.890625 0q-0.109375 -0.296875 -0.28125 -0.859375q-0.078125 -0.265625 -0.109375 -0.34375q-0.75 0.71875 -1.609375 1.09375q-0.84375 0.359375 -1.8125 0.359375q-1.703125 0 -2.6875 -0.921875q-0.984375 -0.9375 -0.984375 -2.34375q0 -0.9375 0.4375 -1.671875q0.453125 -0.734375 1.25 -1.125q0.8125 -0.390625 2.34375 -0.6875q2.046875 -0.390625 2.84375 -0.71875l0 -0.296875q0 -0.84375 -0.421875 -1.203125q-0.421875 -0.359375 -1.578125 -0.359375q-0.78125 0 -1.21875 0.3125q-0.4375 0.3125 -0.703125 1.078125zm3.921875 2.375q-0.5625 0.1875 -1.78125 0.453125q-1.21875 0.25 -1.59375 0.5q-0.578125 0.40625 -0.578125 1.03125q0 0.625 0.453125 1.078125q0.46875 0.4375 1.171875 0.4375q0.796875 0 1.515625 -0.515625q0.53125 -0.40625 0.6875 -0.96875q0.125 -0.375 0.125 -1.4375l0 -0.578125zm10.830444 -5.75l0 2.328125l-2.0 0l0 4.46875q0 1.34375 0.046875 1.578125q0.0625 0.21875 0.265625 0.375q0.203125 0.140625 0.5 0.140625q0.40625 0 1.171875 -0.28125l0.25 2.265625q-1.015625 0.4375 -2.3125 0.4375q-0.796875 0 -1.4375 -0.265625q-0.625 -0.265625 -0.921875 -0.6875q-0.296875 -0.421875 -0.40625 -1.140625q-0.09375 -0.515625 -0.09375 -2.0625l0 -4.828125l-1.34375 0l0 -2.328125l1.34375 0l0 -2.1875l2.9375 -1.71875l0 3.90625l2.0 0zm4.946167 -4.203125l0 5.609375q1.40625 -1.65625 3.375 -1.65625q1.015625 0 1.828125 0.375q0.8125 0.375 1.21875 0.96875q0.40625 0.578125 0.5625 1.28125q0.15625 0.703125 0.15625 2.203125l0 6.484375l-2.921875 0l0 -5.84375q0 -1.734375 -0.171875 -2.203125q-0.171875 -0.46875 -0.59375 -0.75q-0.421875 -0.28125 -1.046875 -0.28125q-0.734375 0 -1.3125 0.359375q-0.5625 0.359375 -0.828125 1.078125q-0.265625 0.703125 -0.265625 2.09375l0 5.546875l-2.9375 0l0 -15.265625l2.9375 0z" fill-rule="nonzero"/></g></svg>