<?xml version="1.0" encoding="UTF-8" standalone="no"?>
<svg
   width="493.536mm"
   height="342.9mm"
   viewBox="0 0 1399 972"
   version="1.2"
   id="svg188"
   sodipodi:docname="2D_sketch_before_update.svg"
   inkscape:version="1.2.2 (b0a8486541, 2022-12-01)"
   xmlns:inkscape="http://www.inkscape.org/namespaces/inkscape"
   xmlns:sodipodi="http://sodipodi.sourceforge.net/DTD/sodipodi-0.dtd"
   xmlns="http://www.w3.org/2000/svg"
   xmlns:svg="http://www.w3.org/2000/svg">
  <sodipodi:namedview
     id="namedview190"
     pagecolor="#ffffff"
     bordercolor="#666666"
     borderopacity="1.0"
     inkscape:showpageshadow="2"
     inkscape:pageopacity="0.0"
     inkscape:pagecheckerboard="0"
     inkscape:deskcolor="#d1d1d1"
     inkscape:document-units="mm"
     showgrid="false"
     inkscape:zoom="0.92971449"
     inkscape:cx="1002.4583"
     inkscape:cy="510.90954"
     inkscape:window-width="1920"
     inkscape:window-height="1043"
     inkscape:window-x="0"
     inkscape:window-y="0"
     inkscape:window-maximized="1"
     inkscape:current-layer="g186" />
  <title
     id="title2">Qt SVG Document</title>
  <desc
     id="desc4">Generated with Qt</desc>
  <defs
     id="defs6" />
  <g
     fill="none"
     stroke="black"
     stroke-width="1"
     fill-rule="evenodd"
     stroke-linecap="square"
     stroke-linejoin="bevel"
     id="g186">
    <g
       fill="#ffffff"
       fill-opacity="1"
       stroke="none"
       transform="matrix(1,0,0,1,0,0)"
       font-family="Sans"
       font-size="9"
       font-weight="400"
       font-style="normal"
       id="g10">
      <rect
         x="0"
         y="0"
         width="1399"
         height="972"
         id="rect8" />
    </g>
    <g
       fill="none"
       stroke="#000000"
       stroke-opacity="1"
       stroke-width="1"
       stroke-linecap="square"
       stroke-linejoin="bevel"
       transform="matrix(1,0,0,1,0,0)"
       font-family="Sans"
       font-size="9"
       font-weight="400"
       font-style="normal"
       id="g12" />
    <g
       fill="none"
       stroke="#000000"
       stroke-opacity="1"
       stroke-width="1"
       stroke-linecap="square"
       stroke-linejoin="bevel"
       transform="matrix(1,0,0,1,0,0)"
       font-family="Sans"
       font-size="9"
       font-weight="400"
       font-style="normal"
       id="g14" />
    <g
       fill="none"
       stroke="#000000"
       stroke-opacity="1"
       stroke-width="1"
       stroke-linecap="square"
       stroke-linejoin="bevel"
       transform="matrix(1,0,0,1,0,0)"
       font-family="Sans"
       font-size="9"
       font-weight="400"
       font-style="normal"
       id="g16" />
    <g
       fill="#ffffff"
       fill-opacity="1"
       stroke="none"
       transform="matrix(1.93654,0,0,1.93654,261,245)"
       font-family="Sans"
       font-size="9"
       font-weight="400"
       font-style="normal"
       id="g20">
      <rect
         x="-135.293"
         y="-127.031"
         width="723.455"
         height="502.959"
         id="rect18" />
    </g>
    <text
       xml:space="preserve"
       style="font-style:normal;font-weight:normal;font-size:24px;line-height:1.25;font-family:sans-serif;fill:#000000;fill-opacity:1;stroke:none;stroke-width:0.75"
       x="895.78229"
       y="539.12201"
       id="text4934-9-35"><tspan
         sodipodi:role="line"
         id="tspan4932-1-62"
         style="font-weight:bold;font-size:24px;fill:#3c78d8;stroke-width:0.75"
         x="895.78229"
         y="539.12201">58..70</tspan></text>
    <text
       xml:space="preserve"
       style="font-style:normal;font-weight:normal;font-size:24px;line-height:1.25;font-family:sans-serif;fill:#000000;fill-opacity:1;stroke:none;stroke-width:0.75"
       x="944.14325"
       y="620.26288"
       id="text4934-9-9"><tspan
         sodipodi:role="line"
         id="tspan4932-1-1"
         style="font-weight:bold;font-size:24px;fill:#3c78d8;stroke-width:0.75"
         x="944.14325"
         y="620.26288">51..57</tspan></text>
    <text
       xml:space="preserve"
       style="font-style:normal;font-weight:normal;font-size:24px;line-height:1.25;font-family:sans-serif;fill:#000000;fill-opacity:1;stroke:none;stroke-width:0.75"
       x="1036.2292"
       y="491.8353"
       id="text4934-9-2"><tspan
         sodipodi:role="line"
         id="tspan4932-1-7"
         style="font-weight:bold;font-size:24px;fill:#3c78d8;stroke-width:0.75"
         x="1036.2292"
         y="491.8353">71..82</tspan></text>
    <g
       fill="none"
       stroke="#000000"
       stroke-opacity="1"
       stroke-width="1"
       stroke-linecap="square"
       stroke-linejoin="bevel"
       transform="matrix(1.93654,0,0,1.93654,261,245)"
       font-family="Sans"
       font-size="9"
       font-weight="400"
       font-style="normal"
       id="g22" />
    <g
       fill="none"
       stroke="#000000"
       stroke-opacity="0.705882"
       stroke-width="1.5"
       stroke-linecap="round"
       stroke-linejoin="bevel"
       transform="matrix(-1.6770928,0.96826998,-0.96826998,-1.6770928,1176.1751,466.48737)"
       font-family="Sans"
       font-size="9px"
       font-weight="400"
       font-style="normal"
       id="g26">
      <path
         vector-effect="none"
         fill-rule="evenodd"
         d="m 310.778,205.283 c 4.182,-2.741 6.169,-11.007 10.025,-7.824"
         id="path24" />
    </g>
    <g
       fill="none"
       stroke="#000000"
       stroke-opacity="1"
       stroke-width="1"
       stroke-linecap="square"
       stroke-linejoin="bevel"
       transform="matrix(1.93654,0,0,1.93654,261,245)"
       font-family="Sans"
       font-size="9"
       font-weight="400"
       font-style="normal"
       id="g28" />
    <g
       fill="none"
       stroke="#000000"
       stroke-opacity="1"
       stroke-width="1"
       stroke-linecap="square"
       stroke-linejoin="bevel"
       transform="matrix(1.93654,0,0,1.93654,261,245)"
       font-family="Sans"
       font-size="9"
       font-weight="400"
       font-style="normal"
       id="g30" />
    <g
       fill="none"
       stroke="#000000"
       stroke-opacity="0.705882"
       stroke-width="1.5"
       stroke-linecap="round"
       stroke-linejoin="bevel"
       transform="matrix(-1.6770928,0.96826998,-0.96826998,-1.6770928,1176.1751,466.48737)"
       font-family="Sans"
       font-size="9px"
       font-weight="400"
       font-style="normal"
       id="g34">
      <path
         vector-effect="none"
         fill-rule="evenodd"
         d="m 155.841,16.5497 c 4.674,1.778 200.384,47.7145 204.118,51.0399"
         id="path32" />
    </g>
    <g
       fill="none"
       stroke="#000000"
       stroke-opacity="1"
       stroke-width="1"
       stroke-linecap="square"
       stroke-linejoin="bevel"
       transform="matrix(1.93654,0,0,1.93654,261,245)"
       font-family="Sans"
       font-size="9"
       font-weight="400"
       font-style="normal"
       id="g36" />
    <g
       fill="none"
       stroke="#000000"
       stroke-opacity="1"
       stroke-width="1"
       stroke-linecap="square"
       stroke-linejoin="bevel"
       transform="matrix(1.93654,0,0,1.93654,261,245)"
       font-family="Sans"
       font-size="9"
       font-weight="400"
       font-style="normal"
       id="g38" />
    <g
       fill="none"
       stroke="#000000"
       stroke-opacity="0.705882"
       stroke-width="1.5"
       stroke-linecap="round"
       stroke-linejoin="bevel"
       transform="matrix(-1.6770928,0.96826998,-0.96826998,-1.6770928,1176.1751,466.48737)"
       font-family="Sans"
       font-size="9px"
       font-weight="400"
       font-style="normal"
       id="g42">
      <path
         vector-effect="none"
         fill-rule="evenodd"
         d="m 215.318,242.208 c 4.973,0.523 7.488,0.287 12.363,-0.822"
         id="path40" />
    </g>
    <g
       fill="none"
       stroke="#000000"
       stroke-opacity="1"
       stroke-width="1"
       stroke-linecap="square"
       stroke-linejoin="bevel"
       transform="matrix(1.93654,0,0,1.93654,261,245)"
       font-family="Sans"
       font-size="9"
       font-weight="400"
       font-style="normal"
       id="g44" />
    <g
       fill="none"
       stroke="#000000"
       stroke-opacity="1"
       stroke-width="1"
       stroke-linecap="square"
       stroke-linejoin="bevel"
       transform="matrix(1.93654,0,0,1.93654,261,245)"
       font-family="Sans"
       font-size="9"
       font-weight="400"
       font-style="normal"
       id="g46" />
    <g
       fill="none"
       stroke="#000000"
       stroke-opacity="0.705882"
       stroke-width="1.5"
       stroke-linecap="round"
       stroke-linejoin="bevel"
       transform="matrix(-1.6770928,0.96826998,-0.96826998,-1.6770928,1176.1751,466.48737)"
       font-family="Sans"
       font-size="9px"
       font-weight="400"
       font-style="normal"
       id="g50">
      <path
         vector-effect="none"
         fill-rule="evenodd"
         d="m 111.149,71.0009 c 4.341,2.4822 7.301,-2.9989 12.102,-4.3959"
         id="path48" />
    </g>
    <g
       fill="none"
       stroke="#000000"
       stroke-opacity="1"
       stroke-width="1"
       stroke-linecap="square"
       stroke-linejoin="bevel"
       transform="matrix(1.93654,0,0,1.93654,261,245)"
       font-family="Sans"
       font-size="9"
       font-weight="400"
       font-style="normal"
       id="g52" />
    <g
       fill="none"
       stroke="#000000"
       stroke-opacity="1"
       stroke-width="1"
       stroke-linecap="square"
       stroke-linejoin="bevel"
       transform="matrix(1.93654,0,0,1.93654,261,245)"
       font-family="Sans"
       font-size="9"
       font-weight="400"
       font-style="normal"
       id="g54" />
    <g
       fill="none"
       stroke="#000000"
       stroke-opacity="0.705882"
       stroke-width="1.5"
       stroke-linecap="round"
       stroke-linejoin="bevel"
       transform="matrix(-1.6770928,0.96826998,-0.96826998,-1.6770928,1176.1751,466.48737)"
       font-family="Sans"
       font-size="9px"
       font-weight="400"
       font-style="normal"
       id="g58">
      <path
         vector-effect="none"
         fill-rule="evenodd"
         d="m 402.359,144.039 c 0.844,4.929 -77.234,13.358 -77.587,18.345"
         id="path56" />
    </g>
    <g
       fill="none"
       stroke="#000000"
       stroke-opacity="1"
       stroke-width="1"
       stroke-linecap="square"
       stroke-linejoin="bevel"
       transform="matrix(1.93654,0,0,1.93654,261,245)"
       font-family="Sans"
       font-size="9"
       font-weight="400"
       font-style="normal"
       id="g60" />
    <g
       fill="none"
       stroke="#000000"
       stroke-opacity="1"
       stroke-width="1"
       stroke-linecap="square"
       stroke-linejoin="bevel"
       transform="matrix(1.93654,0,0,1.93654,261,245)"
       font-family="Sans"
       font-size="9"
       font-weight="400"
       font-style="normal"
       id="g62" />
    <g
       fill="none"
       stroke="#000000"
       stroke-opacity="0.705882"
       stroke-width="1.5"
       stroke-linecap="round"
       stroke-linejoin="bevel"
       transform="matrix(-1.6770928,0.96826998,-0.96826998,-1.6770928,1176.1751,466.48737)"
       font-family="Sans"
       font-size="9px"
       font-weight="400"
       font-style="normal"
       id="g66">
      <path
         vector-effect="none"
         fill-rule="evenodd"
         d="m 100.039,155.468 c 0.269,4.993 0.815,7.486 3.078,11.945"
         id="path64" />
    </g>
    <g
       fill="none"
       stroke="#000000"
       stroke-opacity="1"
       stroke-width="1"
       stroke-linecap="square"
       stroke-linejoin="bevel"
       transform="matrix(1.93654,0,0,1.93654,261,245)"
       font-family="Sans"
       font-size="9"
       font-weight="400"
       font-style="normal"
       id="g68" />
    <g
       fill="none"
       stroke="#000000"
       stroke-opacity="1"
       stroke-width="1"
       stroke-linecap="square"
       stroke-linejoin="bevel"
       transform="matrix(1.93654,0,0,1.93654,261,245)"
       font-family="Sans"
       font-size="9"
       font-weight="400"
       font-style="normal"
       id="g70" />
    <g
       fill="none"
       stroke="#000000"
       stroke-opacity="0.705882"
       stroke-width="1.5"
       stroke-linecap="round"
       stroke-linejoin="bevel"
       transform="matrix(-1.6770928,0.96826998,-0.96826998,-1.6770928,1176.1751,466.48737)"
       font-family="Sans"
       font-size="9px"
       font-weight="400"
       font-style="normal"
       id="g74">
      <path
         vector-effect="none"
         fill-rule="evenodd"
         d="m 111.149,71.0009 c 4.341,2.4822 -2.949,7.2598 -4.109,12.1234"
         id="path72" />
    </g>
    <g
       fill="none"
       stroke="#000000"
       stroke-opacity="1"
       stroke-width="1"
       stroke-linecap="square"
       stroke-linejoin="bevel"
       transform="matrix(1.93654,0,0,1.93654,261,245)"
       font-family="Sans"
       font-size="9"
       font-weight="400"
       font-style="normal"
       id="g76" />
    <g
       fill="none"
       stroke="#000000"
       stroke-opacity="1"
       stroke-width="1"
       stroke-linecap="square"
       stroke-linejoin="bevel"
       transform="matrix(1.93654,0,0,1.93654,261,245)"
       font-family="Sans"
       font-size="9"
       font-weight="400"
       font-style="normal"
       id="g78" />
    <g
       fill="none"
       stroke="#000000"
       stroke-opacity="0.705882"
       stroke-width="1.5"
       stroke-linecap="round"
       stroke-linejoin="bevel"
       transform="matrix(-1.6770928,0.96826998,-0.96826998,-1.6770928,1176.1751,466.48737)"
       font-family="Sans"
       font-size="9px"
       font-weight="400"
       font-style="normal"
       id="g82">
      <path
         vector-effect="none"
         fill-rule="evenodd"
         d="m 323.168,185.053 c -0.353,4.988 -6.221,9.223 -2.365,12.406"
         id="path80" />
    </g>
    <g
       fill="none"
       stroke="#000000"
       stroke-opacity="1"
       stroke-width="1"
       stroke-linecap="square"
       stroke-linejoin="bevel"
       transform="matrix(1.93654,0,0,1.93654,261,245)"
       font-family="Sans"
       font-size="9"
       font-weight="400"
       font-style="normal"
       id="g84" />
    <g
       fill="none"
       stroke="#000000"
       stroke-opacity="1"
       stroke-width="1"
       stroke-linecap="square"
       stroke-linejoin="bevel"
       transform="matrix(1.93654,0,0,1.93654,261,245)"
       font-family="Sans"
       font-size="9"
       font-weight="400"
       font-style="normal"
       id="g86" />
    <g
       fill="none"
       stroke="#000000"
       stroke-opacity="0.705882"
       stroke-width="1.5"
       stroke-linecap="round"
       stroke-linejoin="bevel"
       transform="matrix(-1.6770928,0.96826998,-0.96826998,-1.6770928,1176.1751,466.48737)"
       font-family="Sans"
       font-size="9px"
       font-weight="400"
       font-style="normal"
       id="g90">
      <path
         vector-effect="none"
         fill-rule="evenodd"
         d="m 216.893,53.1475 c 5,0.0201 -103.057,-48.99196 -98.18,-47.88959"
         id="path88" />
    </g>
    <g
       fill="none"
       stroke="#000000"
       stroke-opacity="1"
       stroke-width="1"
       stroke-linecap="square"
       stroke-linejoin="bevel"
       transform="matrix(1.93654,0,0,1.93654,261,245)"
       font-family="Sans"
       font-size="9"
       font-weight="400"
       font-style="normal"
       id="g92" />
    <g
       fill="none"
       stroke="#000000"
       stroke-opacity="1"
       stroke-width="1"
       stroke-linecap="square"
       stroke-linejoin="bevel"
       transform="matrix(1.93654,0,0,1.93654,261,245)"
       font-family="Sans"
       font-size="9"
       font-weight="400"
       font-style="normal"
       id="g94" />
    <g
       fill="#94ca62"
       fill-opacity="1"
       stroke="none"
       transform="matrix(-1.6770928,0.96826998,-0.96826998,-1.6770928,1176.1751,466.48737)"
       font-family="Sans"
       font-size="9px"
       font-weight="400"
       font-style="normal"
       id="g98"
       style="fill:#808080">
      <path
         vector-effect="none"
         fill-rule="nonzero"
         d="m 325.577,191.674 17.95,14.814 c 0.138,0.114 0.272,0.233 0.402,0.357 v 0 l 15.047,14.35 c 0.121,0.116 0.239,0.236 0.353,0.36 h -0.001 l 13.232,14.434 -11.057,10.136 -13.232,-14.434 5.529,-5.068 -5.176,5.427 -15.047,-14.35 5.176,-5.428 -4.774,5.785 -17.95,-14.814 9.548,-11.569"
         id="path96"
         style="fill:#808080" />
    </g>
    <g
       fill="none"
       stroke="#000000"
       stroke-opacity="1"
       stroke-width="1"
       stroke-linecap="square"
       stroke-linejoin="bevel"
       transform="matrix(1.93654,0,0,1.93654,261,245)"
       font-family="Sans"
       font-size="9"
       font-weight="400"
       font-style="normal"
       id="g100" />
    <g
       fill="none"
       stroke="#000000"
       stroke-opacity="1"
       stroke-width="1"
       stroke-linecap="square"
       stroke-linejoin="bevel"
       transform="matrix(1.93654,0,0,1.93654,261,245)"
       font-family="Sans"
       font-size="9"
       font-weight="400"
       font-style="normal"
       id="g102" />
    <g
       fill="none"
       stroke="#000000"
       stroke-opacity="1"
       stroke-width="1"
       stroke-linecap="square"
       stroke-linejoin="bevel"
       transform="matrix(1.93654,0,0,1.93654,261,245)"
       font-family="Sans"
       font-size="9"
       font-weight="400"
       font-style="normal"
       id="g104" />
    <g
       fill="#ae62ca"
       fill-opacity="1"
       stroke="none"
       transform="matrix(-1.6770928,0.96826998,-0.96826998,-1.6770928,1176.1751,466.48737)"
       font-family="Sans"
       font-size="9px"
       font-weight="400"
       font-style="normal"
       id="g108"
       style="fill:#3c78d8">
      <path
         vector-effect="none"
         fill-rule="nonzero"
         d="m 332.253,162.914 -1.604,22.669 -14.963,-1.059 1.605,-22.669 14.962,1.059"
         id="path106"
         style="fill:#3c78d8" />
    </g>
    <g
       fill="none"
       stroke="#000000"
       stroke-opacity="1"
       stroke-width="1"
       stroke-linecap="square"
       stroke-linejoin="bevel"
       transform="matrix(1.93654,0,0,1.93654,261,245)"
       font-family="Sans"
       font-size="9"
       font-weight="400"
       font-style="normal"
       id="g110" />
    <g
       fill="none"
       stroke="#000000"
       stroke-opacity="1"
       stroke-width="1"
       stroke-linecap="square"
       stroke-linejoin="bevel"
       transform="matrix(1.93654,0,0,1.93654,261,245)"
       font-family="Sans"
       font-size="9"
       font-weight="400"
       font-style="normal"
       id="g112" />
    <g
       fill="none"
       stroke="#000000"
       stroke-opacity="1"
       stroke-width="1"
       stroke-linecap="square"
       stroke-linejoin="bevel"
       transform="matrix(1.93654,0,0,1.93654,261,245)"
       font-family="Sans"
       font-size="9"
       font-weight="400"
       font-style="normal"
       id="g114" />
    <g
       fill="#62b5ca"
       fill-opacity="1"
       stroke="none"
       transform="matrix(-1.6770928,0.96826998,-0.96826998,-1.6770928,1176.1751,466.48737)"
       font-family="Sans"
       font-size="9px"
       font-weight="400"
       font-style="normal"
       id="g118"
       style="fill:#e69138;fill-opacity:1">
      <path
         vector-effect="none"
         fill-rule="nonzero"
         d="m 226.017,234.073 21.881,-4.98 1.664,7.313 -2.602,-7.034 21.432,-7.929 2.602,7.034 -3.433,-6.668 20.495,-10.553 3.433,6.668 -4.111,-6.273 19.289,-12.641 8.223,12.546 -19.29,12.641 c -0.217,0.144 -0.443,0.276 -0.676,0.396 l -10e-4,-10e-4 -20.496,10.553 c -0.267,0.139 -0.544,0.262 -0.828,0.367 l -0.003,-0.001 -21.432,7.929 c -0.302,0.114 -0.615,0.207 -0.934,0.28 l -0.004,-0.001 -21.88,4.98 -3.329,-14.626"
         id="path116"
         style="fill:#e69138;fill-opacity:1" />
    </g>
    <g
       fill="none"
       stroke="#000000"
       stroke-opacity="1"
       stroke-width="1"
       stroke-linecap="square"
       stroke-linejoin="bevel"
       transform="matrix(1.93654,0,0,1.93654,261,245)"
       font-family="Sans"
       font-size="9"
       font-weight="400"
       font-style="normal"
       id="g120" />
    <g
       fill="none"
       stroke="#000000"
       stroke-opacity="1"
       stroke-width="1"
       stroke-linecap="square"
       stroke-linejoin="bevel"
       transform="matrix(1.93654,0,0,1.93654,261,245)"
       font-family="Sans"
       font-size="9"
       font-weight="400"
       font-style="normal"
       id="g122" />
    <g
       fill="none"
       stroke="#000000"
       stroke-opacity="1"
       stroke-width="1"
       stroke-linecap="square"
       stroke-linejoin="bevel"
       transform="matrix(1.93654,0,0,1.93654,261,245)"
       font-family="Sans"
       font-size="9"
       font-weight="400"
       font-style="normal"
       id="g124" />
    <g
       fill="#62ca7c"
       fill-opacity="1"
       stroke="none"
       transform="matrix(-1.6770928,0.96826998,-0.96826998,-1.6770928,1176.1751,466.48737)"
       font-family="Sans"
       font-size="9px"
       font-weight="400"
       font-style="normal"
       id="g128"
       style="fill:#808080">
      <path
         vector-effect="none"
         fill-rule="nonzero"
         d="m 30.6702,20.703 18.9604,8.8434 c 0.0575,0.0249 0.1125,0.0514 0.1665,0.0783 l -0.0013,0.0012 20.0427,9.952 c 0.0674,0.0316 0.1322,0.0651 0.196,0.0992 L 70.0334,39.6782 91.5919,51.18 c 0.0665,0.0338 0.1307,0.0694 0.194,0.1057 l -0.001,9e-4 23.0881,13.2038 -7.447,13.021 -23.0877,-13.2038 3.7233,-6.5105 -3.5303,6.6172 -21.5586,-11.5018 3.5304,-6.6172 -3.3355,6.7175 -20.0427,-9.9519 3.3354,-6.7175 -3.1702,6.797 -18.9603,-8.8434 6.3404,-13.594"
         id="path126"
         style="fill:#808080" />
    </g>
    <g
       fill="none"
       stroke="#000000"
       stroke-opacity="1"
       stroke-width="1"
       stroke-linecap="square"
       stroke-linejoin="bevel"
       transform="matrix(1.93654,0,0,1.93654,261,245)"
       font-family="Sans"
       font-size="9"
       font-weight="400"
       font-style="normal"
       id="g130" />
    <g
       fill="none"
       stroke="#000000"
       stroke-opacity="1"
       stroke-width="1"
       stroke-linecap="square"
       stroke-linejoin="bevel"
       transform="matrix(1.93654,0,0,1.93654,261,245)"
       font-family="Sans"
       font-size="9"
       font-weight="400"
       font-style="normal"
       id="g132" />
    <g
       fill="none"
       stroke="#000000"
       stroke-opacity="1"
       stroke-width="1"
       stroke-linecap="square"
       stroke-linejoin="bevel"
       transform="matrix(1.93654,0,0,1.93654,261,245)"
       font-family="Sans"
       font-size="9"
       font-weight="400"
       font-style="normal"
       id="g134" />
    <g
       fill="#c062ca"
       fill-opacity="1"
       stroke="none"
       transform="matrix(-1.6770928,0.96826998,-0.96826998,-1.6770928,1176.1751,466.48737)"
       font-family="Sans"
       font-size="9px"
       font-weight="400"
       font-style="normal"
       id="g138"
       style="fill:#3c78d8">
      <path
         vector-effect="none"
         fill-rule="nonzero"
         d="m 121.155,59.4037 22.848,-6.6489 c 0.213,-0.0638 0.431,-0.1168 0.65,-0.1595 l 0.004,7e-4 23.522,-4.6078 c 0.236,-0.0473 0.477,-0.0823 0.719,-0.1054 l 0.002,3e-4 23.775,-2.2953 c 0.237,-0.0232 0.477,-0.0348 0.72,-0.0348 4.143,0 7.5,3.3579 7.5,7.5 0,4.1422 -3.357,7.5 -7.5,7.5 -4.142,0 -7.5,-3.3578 -7.5,-7.5 0,-3.6404 2.594,-6.6751 6.032,-7.3563 l 1.499,-0.1436 23.497,0.0945 -0.06,14.9998 -23.498,-0.0944 0.03,-7.5 0.721,7.4653 -23.774,2.2953 -0.721,-7.4652 1.442,7.3601 -23.523,4.6077 -1.441,-7.3601 2.095,7.2013 -22.848,6.6489 -4.191,-14.4026"
         id="path136"
         style="fill:#3c78d8" />
    </g>
    <g
       fill="none"
       stroke="#000000"
       stroke-opacity="1"
       stroke-width="1"
       stroke-linecap="square"
       stroke-linejoin="bevel"
       transform="matrix(1.93654,0,0,1.93654,261,245)"
       font-family="Sans"
       font-size="9"
       font-weight="400"
       font-style="normal"
       id="g140" />
    <g
       fill="none"
       stroke="#000000"
       stroke-opacity="1"
       stroke-width="1"
       stroke-linecap="square"
       stroke-linejoin="bevel"
       transform="matrix(1.93654,0,0,1.93654,261,245)"
       font-family="Sans"
       font-size="9"
       font-weight="400"
       font-style="normal"
       id="g142" />
    <g
       fill="none"
       stroke="#000000"
       stroke-opacity="1"
       stroke-width="1"
       stroke-linecap="square"
       stroke-linejoin="bevel"
       transform="matrix(1.93654,0,0,1.93654,261,245)"
       font-family="Sans"
       font-size="9"
       font-weight="400"
       font-style="normal"
       id="g144" />
    <g
       fill="#ca7162"
       fill-opacity="1"
       stroke="none"
       transform="matrix(-1.6770928,0.96826998,-0.96826998,-1.6770928,1176.1751,466.48737)"
       font-family="Sans"
       font-size="9px"
       font-weight="400"
       font-style="normal"
       id="g148"
       style="fill:#e69138;fill-opacity:1">
      <path
         vector-effect="none"
         fill-rule="nonzero"
         d="m 109.805,164.019 10.66,21.007 -6.688,3.394 5.859,-4.683 14.852,18.584 -5.858,4.683 4.738,-5.814 18.522,15.097 -4.739,5.814 3.435,-6.668 21.318,10.98 -3.435,6.668 2.071,-7.209 23.092,6.633 -2.07,7.208 0.783,-7.459 23.757,2.495 -1.567,14.918 -23.757,-2.495 c -0.444,-0.046 -0.875,-0.13 -1.288,-0.249 l 0.001,-0.001 -23.092,-6.633 c -0.478,-0.135 -0.934,-0.317 -1.365,-0.54 l 0.001,-0.001 -21.318,-10.98 c -0.466,-0.239 -0.903,-0.526 -1.304,-0.854 v 0 l -18.522,-15.097 c -0.412,-0.336 -0.788,-0.715 -1.12,-1.131 v 0 l -14.853,-18.584 c -0.318,-0.398 -0.597,-0.829 -0.83,-1.287 l 0.001,-0.001 -10.6601,-21.008 13.3761,-6.787"
         id="path146"
         style="fill:#e69138;fill-opacity:1" />
    </g>
    <g
       fill="none"
       stroke="#000000"
       stroke-opacity="1"
       stroke-width="1"
       stroke-linecap="square"
       stroke-linejoin="bevel"
       transform="matrix(1.93654,0,0,1.93654,261,245)"
       font-family="Sans"
       font-size="9"
       font-weight="400"
       font-style="normal"
       id="g150" />
    <g
       fill="none"
       stroke="#000000"
       stroke-opacity="1"
       stroke-width="1"
       stroke-linecap="square"
       stroke-linejoin="bevel"
       transform="matrix(1.93654,0,0,1.93654,261,245)"
       font-family="Sans"
       font-size="9"
       font-weight="400"
       font-style="normal"
       id="g152" />
    <g
       fill="none"
       stroke="#000000"
       stroke-opacity="1"
       stroke-width="1"
       stroke-linecap="square"
       stroke-linejoin="bevel"
       transform="matrix(1.93654,0,0,1.93654,261,245)"
       font-family="Sans"
       font-size="9"
       font-weight="400"
       font-style="normal"
       id="g154" />
    <g
       fill="#62aeca"
       fill-opacity="1"
       stroke="none"
       transform="matrix(-1.6770928,0.96826998,-0.96826998,-1.6770928,1176.1751,466.48737)"
       font-family="Sans"
       font-size="9px"
       font-weight="400"
       font-style="normal"
       id="g158"
       style="fill:#e69138;fill-opacity:1">
      <path
         vector-effect="none"
         fill-rule="nonzero"
         d="m 114.335,84.8645 -5.739,24.0605 -7.296,-1.74 7.459,0.782 -2.552,24.35 -7.4587,-0.782 7.4887,-0.404 1.291,23.933 -14.9783,0.808 -1.2906,-23.933 c -0.0072,-0.134 -0.0108,-0.268 -0.0108,-0.404 0,-0.265 0.0137,-0.527 0.0403,-0.782 h 5e-4 l 2.552,-24.35 c 0.0337,-0.329 0.0885,-0.65 0.1625,-0.96 l 0.0014,0.002 5.7393,-24.0609 14.5907,3.4804"
         id="path156"
         style="fill:#e69138;fill-opacity:1" />
    </g>
    <g
       fill="none"
       stroke="#000000"
       stroke-opacity="1"
       stroke-width="1"
       stroke-linecap="square"
       stroke-linejoin="bevel"
       transform="matrix(1.93654,0,0,1.93654,261,245)"
       font-family="Sans"
       font-size="9"
       font-weight="400"
       font-style="normal"
       id="g160" />
    <g
       fill="none"
       stroke="#000000"
       stroke-opacity="1"
       stroke-width="1"
       stroke-linecap="square"
       stroke-linejoin="bevel"
       transform="matrix(1.93654,0,0,1.93654,261,245)"
       font-family="Sans"
       font-size="9"
       font-weight="400"
       font-style="normal"
       id="g162" />
    <g
       fill="none"
       stroke="#000000"
       stroke-opacity="1"
       stroke-width="1"
       stroke-linecap="square"
       stroke-linejoin="bevel"
       transform="matrix(1.93654,0,0,1.93654,261,245)"
       font-family="Sans"
       font-size="9"
       font-weight="400"
       font-style="normal"
       id="g164" />
    <g
       fill="#ca8d62"
       fill-opacity="1"
       stroke="none"
       transform="matrix(-1.6770928,0.96826998,-0.96826998,-1.6770928,1176.1751,466.48737)"
       font-family="Sans"
       font-size="9px"
       font-weight="400"
       font-style="normal"
       id="g168"
       style="fill:#3c78d8">
      <path
         vector-effect="none"
         fill-rule="nonzero"
         d="m 364.947,61.9889 17.155,15.2785 c 0.421,0.3747 0.799,0.796 1.126,1.2557 v 5e-4 l 13.031,18.3381 c 0.335,0.4685 0.616,0.9774 0.835,1.5166 l -10e-4,0.0028 8.428,20.7239 c 0.203,0.494 0.353,1.016 0.445,1.556 v 0.003 l 3.786,22.109 -14.785,2.532 -3.786,-22.109 7.392,-1.266 -6.947,2.825 -8.428,-20.724 6.948,-2.825 -6.114,4.345 -13.031,-18.3383 6.113,-4.3445 -4.988,5.6007 -17.155,-15.2785 9.976,-11.2015"
         id="path166"
         style="fill:#3c78d8" />
    </g>
    <g
       fill="none"
       stroke="#000000"
       stroke-opacity="1"
       stroke-width="1"
       stroke-linecap="square"
       stroke-linejoin="bevel"
       transform="matrix(1.93654,0,0,1.93654,261,245)"
       font-family="Sans"
       font-size="9"
       font-weight="400"
       font-style="normal"
       id="g170" />
    <g
       fill="none"
       stroke="#000000"
       stroke-opacity="1"
       stroke-width="1"
       stroke-linecap="square"
       stroke-linejoin="bevel"
       transform="matrix(1.93654,0,0,1.93654,261,245)"
       font-family="Sans"
       font-size="9"
       font-weight="400"
       font-style="normal"
       id="g172" />
    <g
       fill="none"
       stroke="#000000"
       stroke-opacity="1"
       stroke-width="1"
       stroke-linecap="square"
       stroke-linejoin="bevel"
       transform="matrix(1.93654,0,0,1.93654,261,245)"
       font-family="Sans"
       font-size="9"
       font-weight="400"
       font-style="normal"
       id="g174" />
    <g
       fill="#be62ca"
       fill-opacity="1"
       stroke="none"
       transform="matrix(-1.6770928,0.96826998,-0.96826998,-1.6770928,1176.1751,466.48737)"
       font-family="Sans"
       font-size="9px"
       font-weight="400"
       font-style="normal"
       id="g178"
       style="fill:#3c78d8">
      <path
         vector-effect="none"
         fill-rule="nonzero"
         d="m 120.366,-2.05753 18.355,4.14892 c 0.351,0.07751 0.689,0.17994 1.015,0.30414 l -10e-4,0.00152 18.773,7.14283 -5.334,14.01962 -18.773,-7.1429 2.667,-7.00976 -1.654,7.31546 -18.355,-4.1489 3.307,-14.63093"
         id="path176"
         style="fill:#3c78d8" />
    </g>
    <g
       fill="none"
       stroke="#000000"
       stroke-opacity="1"
       stroke-width="1"
       stroke-linecap="square"
       stroke-linejoin="bevel"
       transform="matrix(1.93654,0,0,1.93654,261,245)"
       font-family="Sans"
       font-size="9"
       font-weight="400"
       font-style="normal"
       id="g180" />
    <g
       fill="none"
       stroke="#000000"
       stroke-opacity="1"
       stroke-width="1"
       stroke-linecap="square"
       stroke-linejoin="bevel"
       transform="matrix(1.93654,0,0,1.93654,261,245)"
       font-family="Sans"
       font-size="9"
       font-weight="400"
       font-style="normal"
       id="g182" />
    <g
       fill="none"
       stroke="#000000"
       stroke-opacity="1"
       stroke-width="1"
       stroke-linecap="square"
       stroke-linejoin="bevel"
       transform="matrix(1,0,0,1,0,0)"
       font-family="Sans"
       font-size="9"
       font-weight="400"
       font-style="normal"
       id="g184" />
    <text
       xml:space="preserve"
       style="font-style:normal;font-weight:normal;font-size:24px;line-height:1.25;font-family:sans-serif;fill:#000000;fill-opacity:1;stroke:none;stroke-width:0.75"
       x="265.53214"
       y="394.47418"
       id="text4934"><tspan
         sodipodi:role="line"
         id="tspan4932"
         style="font-weight:bold;font-size:24px;fill:#e69138;stroke-width:0.75"
         x="265.53214"
         y="394.47418">15..30</tspan></text>
    <text
       xml:space="preserve"
       style="font-style:normal;font-weight:normal;font-size:24px;line-height:1.25;font-family:sans-serif;fill:#000000;fill-opacity:1;stroke:none;stroke-width:0.75"
       x="265.53214"
       y="462.45297"
       id="text4934-9"><tspan
         sodipodi:role="line"
         id="tspan4932-1"
         style="font-weight:bold;font-size:24px;fill:#3c78d8;stroke-width:0.75"
         x="265.53214"
         y="462.45297">20..35</tspan></text>
    <text
       xml:space="preserve"
       style="font-style:normal;font-weight:normal;font-size:24px;line-height:1.25;font-family:sans-serif;fill:#000000;fill-opacity:1;stroke:none;stroke-width:0.75"
       x="371.40945"
       y="505.25146"
       id="text4934-9-3"><tspan
         sodipodi:role="line"
         id="tspan4932-1-6"
         style="font-weight:bold;font-size:24px;fill:#3c78d8;stroke-width:0.75"
         x="371.40945"
         y="505.25146">36..38</tspan></text>
    <text
       xml:space="preserve"
       style="font-style:normal;font-weight:normal;font-size:24px;line-height:1.25;font-family:sans-serif;fill:#000000;fill-opacity:1;stroke:none;stroke-width:0.75"
       x="319.80179"
       y="695.28485"
       id="text4934-9-7"><tspan
         sodipodi:role="line"
         id="tspan4932-1-5"
         style="font-weight:bold;font-size:24px;fill:#3c78d8;stroke-width:0.75"
         x="319.80179"
         y="695.28485">39..50</tspan></text>
    <text
       xml:space="preserve"
       style="font-style:normal;font-weight:normal;font-size:24px;line-height:1.25;font-family:sans-serif;fill:#000000;fill-opacity:1;stroke:none;stroke-width:0.75"
       x="407.99884"
       y="341.31509"
       id="text4934-3"><tspan
         sodipodi:role="line"
         id="tspan4932-6"
         style="font-weight:bold;font-size:24px;fill:#e69138;stroke-width:0.75"
         x="407.99884"
         y="341.31509">31..40</tspan></text>
    <text
       xml:space="preserve"
       style="font-style:normal;font-weight:normal;font-size:24px;line-height:1.25;font-family:sans-serif;fill:#000000;fill-opacity:1;stroke:none;stroke-width:0.75"
       x="679.29572"
       y="207.0768"
       id="text4934-7"><tspan
         sodipodi:role="line"
         id="tspan4932-5"
         style="font-weight:bold;font-size:24px;fill:#e69138;stroke-width:0.75"
         x="679.29572"
         y="207.0768">41..60</tspan></text>
    <text
       xml:space="preserve"
       style="font-style:normal;font-weight:normal;font-size:24px;line-height:1.25;font-family:sans-serif;fill:#000000;fill-opacity:1;stroke:none;stroke-width:0.75"
       x="921.07648"
       y="357.7309"
       id="text4934-35"><tspan
         sodipodi:role="line"
         id="tspan4932-62"
         style="font-weight:bold;font-size:24px;fill:#e69138;stroke-width:0.75"
         x="921.07648"
         y="357.7309">61..81</tspan></text>
    <text
       xml:space="preserve"
       style="font-style:normal;font-weight:normal;font-size:24px;line-height:1.25;font-family:sans-serif;fill:#000000;fill-opacity:1;stroke:none;stroke-width:0.75"
       x="1033.8519"
       y="422.63638"
       id="text4934-35-0"><tspan
         sodipodi:role="line"
         id="tspan4932-62-9"
         style="font-weight:bold;font-size:24px;fill:#e69138;stroke-width:0.75"
         x="1033.8519"
         y="422.63638">82..93</tspan></text>
  </g>
</svg>
