<?xml version="1.0" encoding="UTF-8" standalone="no"?>
<svg
   width="493.536mm"
   height="342.9mm"
   viewBox="0 0 1399 972"
   version="1.2"
   id="svg888"
   sodipodi:docname="2D_sketch_after_update.svg"
   inkscape:version="1.2.2 (b0a8486541, 2022-12-01)"
   xmlns:inkscape="http://www.inkscape.org/namespaces/inkscape"
   xmlns:sodipodi="http://sodipodi.sourceforge.net/DTD/sodipodi-0.dtd"
   xmlns="http://www.w3.org/2000/svg"
   xmlns:svg="http://www.w3.org/2000/svg">
  <sodipodi:namedview
     id="namedview890"
     pagecolor="#ffffff"
     bordercolor="#666666"
     borderopacity="1.0"
     inkscape:showpageshadow="2"
     inkscape:pageopacity="0.0"
     inkscape:pagecheckerboard="0"
     inkscape:deskcolor="#d1d1d1"
     inkscape:document-units="mm"
     showgrid="false"
     inkscape:zoom="0.63974145"
     inkscape:cx="842.52787"
     inkscape:cy="644.01017"
     inkscape:window-width="1920"
     inkscape:window-height="1043"
     inkscape:window-x="0"
     inkscape:window-y="0"
     inkscape:window-maximized="1"
     inkscape:current-layer="svg888" />
  <title
     id="title702">Qt SVG Document</title>
  <desc
     id="desc704">Generated with Qt</desc>
  <defs
     id="defs706" />
  <g
     fill="#ffffff"
     fill-opacity="1"
     stroke="none"
     font-family="Sans"
     font-size="9px"
     font-weight="400"
     font-style="normal"
     id="g710"
     style="fill-rule:evenodd;stroke-width:1;stroke-linecap:square;stroke-linejoin:bevel">
    <rect
       x="0"
       y="0"
       width="1399"
       height="972"
       id="rect708" />
  </g>
  <g
     fill="none"
     stroke="#000000"
     stroke-opacity="1"
     stroke-width="1"
     stroke-linecap="square"
     stroke-linejoin="bevel"
     font-family="Sans"
     font-size="9px"
     font-weight="400"
     font-style="normal"
     id="g712"
     style="fill-rule:evenodd" />
  <g
     fill="none"
     stroke="#000000"
     stroke-opacity="1"
     stroke-width="1"
     stroke-linecap="square"
     stroke-linejoin="bevel"
     font-family="Sans"
     font-size="9px"
     font-weight="400"
     font-style="normal"
     id="g714"
     style="fill-rule:evenodd" />
  <g
     fill="none"
     stroke="#000000"
     stroke-opacity="1"
     stroke-width="1"
     stroke-linecap="square"
     stroke-linejoin="bevel"
     font-family="Sans"
     font-size="9px"
     font-weight="400"
     font-style="normal"
     id="g716"
     style="fill-rule:evenodd" />
  <g
     fill="#ffffff"
     fill-opacity="1"
     stroke="none"
     transform="matrix(1.93654,0,0,1.93654,261,245)"
     font-family="Sans"
     font-size="9px"
     font-weight="400"
     font-style="normal"
     id="g720"
     style="fill-rule:evenodd;stroke-width:1;stroke-linecap:square;stroke-linejoin:bevel">
    <rect
       x="-135.293"
       y="-127.031"
       width="723.45502"
       height="502.95901"
       id="rect718" />
  </g>
  <text
     xml:space="preserve"
     style="font-style:normal;font-weight:normal;font-size:24px;line-height:1.25;font-family:sans-serif;fill:#000000;fill-opacity:1;stroke:none;stroke-width:0.75"
     x="895.78253"
     y="539.12225"
     id="text4934-9-35"><tspan
       sodipodi:role="line"
       id="tspan4932-1-62"
       style="font-weight:bold;font-size:24px;fill:#3c78d8;stroke-width:0.75"
       x="895.78253"
       y="539.12225">58..70</tspan></text>
  <g
     fill="none"
     stroke="#000000"
     stroke-opacity="1"
     stroke-width="1"
     stroke-linecap="square"
     stroke-linejoin="bevel"
     transform="matrix(1.93654,0,0,1.93654,261,245)"
     font-family="Sans"
     font-size="9px"
     font-weight="400"
     font-style="normal"
     id="g722"
     style="fill-rule:evenodd" />
  <g
     fill="none"
     stroke="#000000"
     stroke-opacity="1"
     stroke-width="1"
     stroke-linecap="square"
     stroke-linejoin="bevel"
     transform="matrix(1.93654,0,0,1.93654,261,245)"
     font-family="Sans"
     font-size="9px"
     font-weight="400"
     font-style="normal"
     id="g728"
     style="fill-rule:evenodd" />
  <g
     fill="none"
     stroke="#000000"
     stroke-opacity="1"
     stroke-width="1"
     stroke-linecap="square"
     stroke-linejoin="bevel"
     transform="matrix(1.93654,0,0,1.93654,261,245)"
     font-family="Sans"
     font-size="9px"
     font-weight="400"
     font-style="normal"
     id="g730"
     style="fill-rule:evenodd" />
  <g
     fill="none"
     stroke="#000000"
     stroke-opacity="1"
     stroke-width="1"
     stroke-linecap="square"
     stroke-linejoin="bevel"
     transform="matrix(1.93654,0,0,1.93654,261,245)"
     font-family="Sans"
     font-size="9px"
     font-weight="400"
     font-style="normal"
     id="g736"
     style="fill-rule:evenodd" />
  <g
     fill="none"
     stroke="#000000"
     stroke-opacity="1"
     stroke-width="1"
     stroke-linecap="square"
     stroke-linejoin="bevel"
     transform="matrix(1.93654,0,0,1.93654,261,245)"
     font-family="Sans"
     font-size="9px"
     font-weight="400"
     font-style="normal"
     id="g738"
     style="fill-rule:evenodd" />
  <g
     fill="none"
     stroke="#000000"
     stroke-opacity="1"
     stroke-width="1"
     stroke-linecap="square"
     stroke-linejoin="bevel"
     transform="matrix(1.93654,0,0,1.93654,261,245)"
     font-family="Sans"
     font-size="9px"
     font-weight="400"
     font-style="normal"
     id="g744"
     style="fill-rule:evenodd" />
  <g
     fill="none"
     stroke="#000000"
     stroke-opacity="1"
     stroke-width="1"
     stroke-linecap="square"
     stroke-linejoin="bevel"
     transform="matrix(1.93654,0,0,1.93654,261,245)"
     font-family="Sans"
     font-size="9px"
     font-weight="400"
     font-style="normal"
     id="g746"
     style="fill-rule:evenodd" />
  <g
     fill="none"
     stroke="#000000"
     stroke-opacity="1"
     stroke-width="1"
     stroke-linecap="square"
     stroke-linejoin="bevel"
     transform="matrix(1.93654,0,0,1.93654,261,245)"
     font-family="Sans"
     font-size="9px"
     font-weight="400"
     font-style="normal"
     id="g752"
     style="fill-rule:evenodd" />
  <g
     fill="none"
     stroke="#000000"
     stroke-opacity="1"
     stroke-width="1"
     stroke-linecap="square"
     stroke-linejoin="bevel"
     transform="matrix(1.93654,0,0,1.93654,261,245)"
     font-family="Sans"
     font-size="9px"
     font-weight="400"
     font-style="normal"
     id="g754"
     style="fill-rule:evenodd" />
  <g
     fill="none"
     stroke="#000000"
     stroke-opacity="1"
     stroke-width="1"
     stroke-linecap="square"
     stroke-linejoin="bevel"
     transform="matrix(1.93654,0,0,1.93654,261,245)"
     font-family="Sans"
     font-size="9px"
     font-weight="400"
     font-style="normal"
     id="g760"
     style="fill-rule:evenodd" />
  <g
     fill="none"
     stroke="#000000"
     stroke-opacity="1"
     stroke-width="1"
     stroke-linecap="square"
     stroke-linejoin="bevel"
     transform="matrix(1.93654,0,0,1.93654,261,245)"
     font-family="Sans"
     font-size="9px"
     font-weight="400"
     font-style="normal"
     id="g762"
     style="fill-rule:evenodd" />
  <g
     fill="none"
     stroke="#000000"
     stroke-opacity="1"
     stroke-width="1"
     stroke-linecap="square"
     stroke-linejoin="bevel"
     transform="matrix(1.93654,0,0,1.93654,261,245)"
     font-family="Sans"
     font-size="9px"
     font-weight="400"
     font-style="normal"
     id="g768"
     style="fill-rule:evenodd" />
  <g
     fill="none"
     stroke="#000000"
     stroke-opacity="1"
     stroke-width="1"
     stroke-linecap="square"
     stroke-linejoin="bevel"
     transform="matrix(1.93654,0,0,1.93654,261,245)"
     font-family="Sans"
     font-size="9px"
     font-weight="400"
     font-style="normal"
     id="g770"
     style="fill-rule:evenodd" />
  <g
     fill="none"
     stroke="#000000"
     stroke-opacity="1"
     stroke-width="1"
     stroke-linecap="square"
     stroke-linejoin="bevel"
     transform="matrix(1.93654,0,0,1.93654,261,245)"
     font-family="Sans"
     font-size="9px"
     font-weight="400"
     font-style="normal"
     id="g776"
     style="fill-rule:evenodd" />
  <g
     fill="none"
     stroke="#000000"
     stroke-opacity="1"
     stroke-width="1"
     stroke-linecap="square"
     stroke-linejoin="bevel"
     transform="matrix(1.93654,0,0,1.93654,261,245)"
     font-family="Sans"
     font-size="9px"
     font-weight="400"
     font-style="normal"
     id="g778"
     style="fill-rule:evenodd" />
  <g
     fill="none"
     stroke="#000000"
     stroke-opacity="1"
     stroke-width="1"
     stroke-linecap="square"
     stroke-linejoin="bevel"
     transform="matrix(1.93654,0,0,1.93654,261,245)"
     font-family="Sans"
     font-size="9px"
     font-weight="400"
     font-style="normal"
     id="g784"
     style="fill-rule:evenodd" />
  <g
     fill="none"
     stroke="#000000"
     stroke-opacity="1"
     stroke-width="1"
     stroke-linecap="square"
     stroke-linejoin="bevel"
     transform="matrix(1.93654,0,0,1.93654,261,245)"
     font-family="Sans"
     font-size="9px"
     font-weight="400"
     font-style="normal"
     id="g786"
     style="fill-rule:evenodd" />
  <g
     fill="none"
     stroke="#000000"
     stroke-opacity="1"
     stroke-width="1"
     stroke-linecap="square"
     stroke-linejoin="bevel"
     transform="matrix(1.93654,0,0,1.93654,261,245)"
     font-family="Sans"
     font-size="9px"
     font-weight="400"
     font-style="normal"
     id="g792"
     style="fill-rule:evenodd" />
  <g
     fill="none"
     stroke="#000000"
     stroke-opacity="1"
     stroke-width="1"
     stroke-linecap="square"
     stroke-linejoin="bevel"
     transform="matrix(1.93654,0,0,1.93654,261,245)"
     font-family="Sans"
     font-size="9px"
     font-weight="400"
     font-style="normal"
     id="g794"
     style="fill-rule:evenodd" />
  <g
     fill="none"
     stroke="#000000"
     stroke-opacity="1"
     stroke-width="1"
     stroke-linecap="square"
     stroke-linejoin="bevel"
     transform="matrix(1.93654,0,0,1.93654,261,245)"
     font-family="Sans"
     font-size="9px"
     font-weight="400"
     font-style="normal"
     id="g800"
     style="fill-rule:evenodd" />
  <g
     fill="none"
     stroke="#000000"
     stroke-opacity="1"
     stroke-width="1"
     stroke-linecap="square"
     stroke-linejoin="bevel"
     transform="matrix(1.93654,0,0,1.93654,261,245)"
     font-family="Sans"
     font-size="9px"
     font-weight="400"
     font-style="normal"
     id="g802"
     style="fill-rule:evenodd" />
  <g
     fill="none"
     stroke="#000000"
     stroke-opacity="1"
     stroke-width="1"
     stroke-linecap="square"
     stroke-linejoin="bevel"
     transform="matrix(1.93654,0,0,1.93654,261,245)"
     font-family="Sans"
     font-size="9px"
     font-weight="400"
     font-style="normal"
     id="g804"
     style="fill-rule:evenodd" />
  <g
     fill="none"
     stroke="#000000"
     stroke-opacity="1"
     stroke-width="1"
     stroke-linecap="square"
     stroke-linejoin="bevel"
     transform="matrix(1.93654,0,0,1.93654,261,245)"
     font-family="Sans"
     font-size="9px"
     font-weight="400"
     font-style="normal"
     id="g810"
     style="fill-rule:evenodd" />
  <g
     fill="none"
     stroke="#000000"
     stroke-opacity="1"
     stroke-width="1"
     stroke-linecap="square"
     stroke-linejoin="bevel"
     transform="matrix(1.93654,0,0,1.93654,261,245)"
     font-family="Sans"
     font-size="9px"
     font-weight="400"
     font-style="normal"
     id="g812"
     style="fill-rule:evenodd" />
  <g
     fill="none"
     stroke="#000000"
     stroke-opacity="1"
     stroke-width="1"
     stroke-linecap="square"
     stroke-linejoin="bevel"
     transform="matrix(1.93654,0,0,1.93654,261,245)"
     font-family="Sans"
     font-size="9px"
     font-weight="400"
     font-style="normal"
     id="g814"
     style="fill-rule:evenodd" />
  <g
     fill="none"
     stroke="#000000"
     stroke-opacity="1"
     stroke-width="1"
     stroke-linecap="square"
     stroke-linejoin="bevel"
     transform="matrix(1.93654,0,0,1.93654,261,245)"
     font-family="Sans"
     font-size="9px"
     font-weight="400"
     font-style="normal"
     id="g820"
     style="fill-rule:evenodd" />
  <g
     fill="none"
     stroke="#000000"
     stroke-opacity="1"
     stroke-width="1"
     stroke-linecap="square"
     stroke-linejoin="bevel"
     transform="matrix(1.93654,0,0,1.93654,261,245)"
     font-family="Sans"
     font-size="9px"
     font-weight="400"
     font-style="normal"
     id="g822"
     style="fill-rule:evenodd" />
  <g
     fill="none"
     stroke="#000000"
     stroke-opacity="1"
     stroke-width="1"
     stroke-linecap="square"
     stroke-linejoin="bevel"
     transform="matrix(1.93654,0,0,1.93654,261,245)"
     font-family="Sans"
     font-size="9px"
     font-weight="400"
     font-style="normal"
     id="g824"
     style="fill-rule:evenodd" />
  <g
     fill="none"
     stroke="#000000"
     stroke-opacity="1"
     stroke-width="1"
     stroke-linecap="square"
     stroke-linejoin="bevel"
     transform="matrix(1.93654,0,0,1.93654,261,245)"
     font-family="Sans"
     font-size="9px"
     font-weight="400"
     font-style="normal"
     id="g830"
     style="fill-rule:evenodd" />
  <g
     fill="none"
     stroke="#000000"
     stroke-opacity="1"
     stroke-width="1"
     stroke-linecap="square"
     stroke-linejoin="bevel"
     transform="matrix(1.93654,0,0,1.93654,261,245)"
     font-family="Sans"
     font-size="9px"
     font-weight="400"
     font-style="normal"
     id="g832"
     style="fill-rule:evenodd" />
  <g
     fill="none"
     stroke="#000000"
     stroke-opacity="1"
     stroke-width="1"
     stroke-linecap="square"
     stroke-linejoin="bevel"
     transform="matrix(1.93654,0,0,1.93654,261,245)"
     font-family="Sans"
     font-size="9px"
     font-weight="400"
     font-style="normal"
     id="g834"
     style="fill-rule:evenodd" />
  <g
     fill="none"
     stroke="#000000"
     stroke-opacity="1"
     stroke-width="1"
     stroke-linecap="square"
     stroke-linejoin="bevel"
     transform="matrix(1.93654,0,0,1.93654,261,245)"
     font-family="Sans"
     font-size="9px"
     font-weight="400"
     font-style="normal"
     id="g840"
     style="fill-rule:evenodd" />
  <g
     fill="none"
     stroke="#000000"
     stroke-opacity="1"
     stroke-width="1"
     stroke-linecap="square"
     stroke-linejoin="bevel"
     transform="matrix(1.93654,0,0,1.93654,261,245)"
     font-family="Sans"
     font-size="9px"
     font-weight="400"
     font-style="normal"
     id="g842"
     style="fill-rule:evenodd" />
  <g
     fill="none"
     stroke="#000000"
     stroke-opacity="1"
     stroke-width="1"
     stroke-linecap="square"
     stroke-linejoin="bevel"
     transform="matrix(1.93654,0,0,1.93654,261,245)"
     font-family="Sans"
     font-size="9px"
     font-weight="400"
     font-style="normal"
     id="g844"
     style="fill-rule:evenodd" />
  <g
     fill="none"
     stroke="#000000"
     stroke-opacity="1"
     stroke-width="1"
     stroke-linecap="square"
     stroke-linejoin="bevel"
     transform="matrix(1.93654,0,0,1.93654,261,245)"
     font-family="Sans"
     font-size="9px"
     font-weight="400"
     font-style="normal"
     id="g850"
     style="fill-rule:evenodd" />
  <g
     fill="none"
     stroke="#000000"
     stroke-opacity="1"
     stroke-width="1"
     stroke-linecap="square"
     stroke-linejoin="bevel"
     transform="matrix(1.93654,0,0,1.93654,261,245)"
     font-family="Sans"
     font-size="9px"
     font-weight="400"
     font-style="normal"
     id="g852"
     style="fill-rule:evenodd" />
  <g
     fill="none"
     stroke="#000000"
     stroke-opacity="1"
     stroke-width="1"
     stroke-linecap="square"
     stroke-linejoin="bevel"
     transform="matrix(1.93654,0,0,1.93654,261,245)"
     font-family="Sans"
     font-size="9px"
     font-weight="400"
     font-style="normal"
     id="g854"
     style="fill-rule:evenodd" />
  <g
     fill="none"
     stroke="#000000"
     stroke-opacity="1"
     stroke-width="1"
     stroke-linecap="square"
     stroke-linejoin="bevel"
     transform="matrix(1.93654,0,0,1.93654,261,245)"
     font-family="Sans"
     font-size="9px"
     font-weight="400"
     font-style="normal"
     id="g860"
     style="fill-rule:evenodd" />
  <g
     fill="none"
     stroke="#000000"
     stroke-opacity="1"
     stroke-width="1"
     stroke-linecap="square"
     stroke-linejoin="bevel"
     transform="matrix(1.93654,0,0,1.93654,261,245)"
     font-family="Sans"
     font-size="9px"
     font-weight="400"
     font-style="normal"
     id="g862"
     style="fill-rule:evenodd" />
  <g
     fill="none"
     stroke="#000000"
     stroke-opacity="1"
     stroke-width="1"
     stroke-linecap="square"
     stroke-linejoin="bevel"
     transform="matrix(1.93654,0,0,1.93654,261,245)"
     font-family="Sans"
     font-size="9px"
     font-weight="400"
     font-style="normal"
     id="g864"
     style="fill-rule:evenodd" />
  <g
     fill="none"
     stroke="#000000"
     stroke-opacity="1"
     stroke-width="1"
     stroke-linecap="square"
     stroke-linejoin="bevel"
     transform="matrix(1.93654,0,0,1.93654,261,245)"
     font-family="Sans"
     font-size="9px"
     font-weight="400"
     font-style="normal"
     id="g870"
     style="fill-rule:evenodd" />
  <g
     fill="none"
     stroke="#000000"
     stroke-opacity="1"
     stroke-width="1"
     stroke-linecap="square"
     stroke-linejoin="bevel"
     transform="matrix(1.93654,0,0,1.93654,261,245)"
     font-family="Sans"
     font-size="9px"
     font-weight="400"
     font-style="normal"
     id="g872"
     style="fill-rule:evenodd" />
  <g
     fill="none"
     stroke="#000000"
     stroke-opacity="1"
     stroke-width="1"
     stroke-linecap="square"
     stroke-linejoin="bevel"
     transform="matrix(1.93654,0,0,1.93654,261,245)"
     font-family="Sans"
     font-size="9px"
     font-weight="400"
     font-style="normal"
     id="g874"
     style="fill-rule:evenodd" />
  <g
     fill="none"
     stroke="#000000"
     stroke-opacity="0.705882"
     stroke-width="1.5"
     stroke-linecap="round"
     stroke-linejoin="bevel"
     transform="matrix(-1.6770928,0.96827,-0.96827,-1.6770928,1175.9525,466.07901)"
     font-family="Sans"
     font-size="9px"
     font-weight="400"
     font-style="normal"
     id="g726"
     style="fill-rule:evenodd">
    <path
       vector-effect="none"
       fill-rule="evenodd"
       d="m 310.778,205.283 c 4.182,-2.741 6.169,-11.007 10.025,-7.824"
       id="path724" />
  </g>
  <g
     fill="none"
     stroke="#000000"
     stroke-opacity="0.705882"
     stroke-width="1.5"
     stroke-linecap="round"
     stroke-linejoin="bevel"
     transform="matrix(-1.6770928,0.96827,-0.96827,-1.6770928,1175.9525,466.07901)"
     font-family="Sans"
     font-size="9px"
     font-weight="400"
     font-style="normal"
     id="g734"
     style="fill-rule:evenodd">
    <path
       vector-effect="none"
       fill-rule="evenodd"
       d="m 269.174,64.7545 c 4.676,1.77 9.589,5.4028 13.165,8.8979"
       id="path732" />
  </g>
  <g
     fill="none"
     stroke="#000000"
     stroke-opacity="0.705882"
     stroke-width="1.5"
     stroke-linecap="round"
     stroke-linejoin="bevel"
     transform="matrix(-1.6770928,0.96827,-0.96827,-1.6770928,1175.9525,466.07901)"
     font-family="Sans"
     font-size="9px"
     font-weight="400"
     font-style="normal"
     id="g742"
     style="fill-rule:evenodd">
    <path
       vector-effect="none"
       fill-rule="evenodd"
       d="m 215.318,242.208 c 4.973,0.523 7.488,0.287 12.363,-0.822"
       id="path740" />
  </g>
  <g
     fill="none"
     stroke="#000000"
     stroke-opacity="0.705882"
     stroke-width="1.5"
     stroke-linecap="round"
     stroke-linejoin="bevel"
     transform="matrix(-1.6770928,0.96827,-0.96827,-1.6770928,1175.9525,466.07901)"
     font-family="Sans"
     font-size="9px"
     font-weight="400"
     font-style="normal"
     id="g750"
     style="fill-rule:evenodd">
    <path
       vector-effect="none"
       fill-rule="evenodd"
       d="m 111.149,71.0009 c 4.341,2.4822 7.301,-2.9989 12.102,-4.3959"
       id="path748" />
  </g>
  <g
     fill="none"
     stroke="#000000"
     stroke-opacity="0.705882"
     stroke-width="1.5"
     stroke-linecap="round"
     stroke-linejoin="bevel"
     transform="matrix(-1.6770928,0.96827,-0.96827,-1.6770928,1175.9525,466.07901)"
     font-family="Sans"
     font-size="9px"
     font-weight="400"
     font-style="normal"
     id="g758"
     style="fill-rule:evenodd">
    <path
       vector-effect="none"
       fill-rule="evenodd"
       d="m 324.567,150.079 c 1.131,4.87 0.558,7.318 0.205,12.305"
       id="path756" />
  </g>
  <g
     fill="none"
     stroke="#000000"
     stroke-opacity="0.705882"
     stroke-width="1.5"
     stroke-linecap="round"
     stroke-linejoin="bevel"
     transform="matrix(-1.6770928,0.96827,-0.96827,-1.6770928,1175.9525,466.07901)"
     font-family="Sans"
     font-size="9px"
     font-weight="400"
     font-style="normal"
     id="g766"
     style="fill-rule:evenodd">
    <path
       vector-effect="none"
       fill-rule="evenodd"
       d="m 100.039,155.468 c 0.269,4.993 0.815,7.486 3.078,11.945"
       id="path764" />
  </g>
  <g
     fill="none"
     stroke="#000000"
     stroke-opacity="0.705882"
     stroke-width="1.5"
     stroke-linecap="round"
     stroke-linejoin="bevel"
     transform="matrix(-1.6770928,0.96827,-0.96827,-1.6770928,1175.9525,466.07901)"
     font-family="Sans"
     font-size="9px"
     font-weight="400"
     font-style="normal"
     id="g774"
     style="fill-rule:evenodd">
    <path
       vector-effect="none"
       fill-rule="evenodd"
       d="m 111.149,71.0009 c 4.341,2.4822 -2.949,7.2598 -4.109,12.1234"
       id="path772" />
  </g>
  <g
     fill="none"
     stroke="#000000"
     stroke-opacity="0.705882"
     stroke-width="1.5"
     stroke-linecap="round"
     stroke-linejoin="bevel"
     transform="matrix(-1.6770928,0.96827,-0.96827,-1.6770928,1175.9525,466.07901)"
     font-family="Sans"
     font-size="9px"
     font-weight="400"
     font-style="normal"
     id="g782"
     style="fill-rule:evenodd">
    <path
       vector-effect="none"
       fill-rule="evenodd"
       d="m 323.168,185.053 c -0.353,4.988 -6.221,9.223 -2.365,12.406"
       id="path780" />
  </g>
  <g
     fill="none"
     stroke="#000000"
     stroke-opacity="0.705882"
     stroke-width="1.5"
     stroke-linecap="round"
     stroke-linejoin="bevel"
     transform="matrix(-1.6770928,0.96827,-0.96827,-1.6770928,1175.9525,466.07901)"
     font-family="Sans"
     font-size="9px"
     font-weight="400"
     font-style="normal"
     id="g790"
     style="fill-rule:evenodd">
    <path
       vector-effect="none"
       fill-rule="evenodd"
       d="m 216.893,53.1475 c 5,0.0201 10.284,-0.8251 15.152,0.3153"
       id="path788" />
  </g>
  <g
     fill="#94ca62"
     fill-opacity="1"
     stroke="none"
     transform="matrix(-1.6770928,0.96827,-0.96827,-1.6770928,1175.9525,466.07901)"
     font-family="Sans"
     font-size="9px"
     font-weight="400"
     font-style="normal"
     id="g798"
     style="fill-rule:evenodd;stroke-width:1;stroke-linecap:square;stroke-linejoin:bevel;fill:#808080">
    <path
       vector-effect="none"
       fill-rule="nonzero"
       d="m 325.577,191.674 17.95,14.814 c 0.138,0.114 0.272,0.233 0.402,0.357 v 0 l 15.047,14.35 c 0.121,0.116 0.239,0.236 0.353,0.36 h -0.001 l 13.232,14.434 -11.057,10.136 -13.232,-14.434 5.529,-5.068 -5.176,5.427 -15.047,-14.35 5.176,-5.428 -4.774,5.785 -17.95,-14.814 9.548,-11.569"
       id="path796"
       style="fill:#808080" />
  </g>
  <g
     fill="#ae62ca"
     fill-opacity="1"
     stroke="none"
     transform="matrix(-1.6770928,0.96827,-0.96827,-1.6770928,1175.9525,466.07901)"
     font-family="Sans"
     font-size="9px"
     font-weight="400"
     font-style="normal"
     id="g808"
     style="fill-rule:evenodd;stroke-width:1;stroke-linecap:square;stroke-linejoin:bevel;fill:#3c78d8">
    <path
       vector-effect="none"
       fill-rule="nonzero"
       d="m 332.253,162.914 -1.604,22.669 -14.963,-1.059 1.605,-22.669 14.962,1.059"
       id="path806"
       style="fill:#3c78d8" />
  </g>
  <g
     fill="#62b5ca"
     fill-opacity="1"
     stroke="none"
     transform="matrix(-1.6770928,0.96827,-0.96827,-1.6770928,1175.9525,466.07901)"
     font-family="Sans"
     font-size="9px"
     font-weight="400"
     font-style="normal"
     id="g818"
     style="fill-rule:evenodd;stroke-width:1;stroke-linecap:square;stroke-linejoin:bevel;fill:#e69138">
    <path
       vector-effect="none"
       fill-rule="nonzero"
       d="m 226.017,234.073 21.881,-4.98 1.664,7.313 -2.602,-7.034 21.432,-7.929 2.602,7.034 -3.433,-6.668 20.495,-10.553 3.433,6.668 -4.111,-6.273 19.289,-12.641 8.223,12.546 -19.29,12.641 c -0.217,0.144 -0.443,0.276 -0.676,0.396 l -10e-4,-10e-4 -20.496,10.553 c -0.267,0.139 -0.544,0.262 -0.828,0.367 l -0.003,-0.001 -21.432,7.929 c -0.302,0.114 -0.615,0.207 -0.934,0.28 l -0.004,-0.001 -21.88,4.98 -3.329,-14.626"
       id="path816"
       style="fill:#e69138" />
  </g>
  <g
     fill="#62ca7c"
     fill-opacity="1"
     stroke="none"
     transform="matrix(-1.6770928,0.96827,-0.96827,-1.6770928,1175.9525,466.07901)"
     font-family="Sans"
     font-size="9px"
     font-weight="400"
     font-style="normal"
     id="g828"
     style="fill-rule:evenodd;stroke-width:1;stroke-linecap:square;stroke-linejoin:bevel;fill:#808080">
    <path
       vector-effect="none"
       fill-rule="nonzero"
       d="m 30.6702,20.703 18.9604,8.8434 c 0.0575,0.0249 0.1125,0.0514 0.1665,0.0783 l -0.0013,0.0012 20.0427,9.952 c 0.0674,0.0316 0.1322,0.0651 0.196,0.0992 L 70.0334,39.6782 91.5919,51.18 c 0.0665,0.0338 0.1307,0.0694 0.194,0.1057 l -0.001,9e-4 23.0881,13.2038 -7.447,13.021 -23.0877,-13.2038 3.7233,-6.5105 -3.5303,6.6172 -21.5586,-11.5018 3.5304,-6.6172 -3.3355,6.7175 -20.0427,-9.9519 3.3354,-6.7175 -3.1702,6.797 -18.9603,-8.8434 6.3404,-13.594"
       id="path826"
       style="fill:#808080" />
  </g>
  <g
     fill="#c062ca"
     fill-opacity="1"
     stroke="none"
     transform="matrix(-1.6770928,0.96827,-0.96827,-1.6770928,1175.9525,466.07901)"
     font-family="Sans"
     font-size="9px"
     font-weight="400"
     font-style="normal"
     id="g838"
     style="fill-rule:evenodd;stroke-width:1;stroke-linecap:square;stroke-linejoin:bevel;fill:#3c78d8">
    <path
       vector-effect="none"
       fill-rule="nonzero"
       d="m 121.155,59.4037 22.848,-6.6489 c 0.213,-0.0638 0.431,-0.1168 0.65,-0.1595 l 0.004,7e-4 23.522,-4.6078 c 0.236,-0.0473 0.477,-0.0823 0.719,-0.1054 l 0.002,3e-4 23.775,-2.2953 c 0.237,-0.0232 0.477,-0.0348 0.72,-0.0348 4.143,0 7.5,3.3579 7.5,7.5 0,4.1422 -3.357,7.5 -7.5,7.5 -4.142,0 -7.5,-3.3578 -7.5,-7.5 0,-3.6404 2.594,-6.6751 6.032,-7.3563 l 1.499,-0.1436 23.497,0.0945 -0.06,14.9998 -23.498,-0.0944 0.03,-7.5 0.721,7.4653 -23.774,2.2953 -0.721,-7.4652 1.442,7.3601 -23.523,4.6077 -1.441,-7.3601 2.095,7.2013 -22.848,6.6489 -4.191,-14.4026"
       id="path836"
       style="fill:#3c78d8" />
  </g>
  <g
     fill="#ca7162"
     fill-opacity="1"
     stroke="none"
     transform="matrix(-1.6770928,0.96827,-0.96827,-1.6770928,1175.9525,466.07901)"
     font-family="Sans"
     font-size="9px"
     font-weight="400"
     font-style="normal"
     id="g848"
     style="fill-rule:evenodd;stroke-width:1;stroke-linecap:square;stroke-linejoin:bevel;fill:#e69138">
    <path
       vector-effect="none"
       fill-rule="nonzero"
       d="m 109.805,164.019 10.66,21.007 -6.688,3.394 5.859,-4.683 14.852,18.584 -5.858,4.683 4.738,-5.814 18.522,15.097 -4.739,5.814 3.435,-6.668 21.318,10.98 -3.435,6.668 2.071,-7.209 23.092,6.633 -2.07,7.208 0.783,-7.459 23.757,2.495 -1.567,14.918 -23.757,-2.495 c -0.444,-0.046 -0.875,-0.13 -1.288,-0.249 l 0.001,-0.001 -23.092,-6.633 c -0.478,-0.135 -0.934,-0.317 -1.365,-0.54 l 0.001,-0.001 -21.318,-10.98 c -0.466,-0.239 -0.903,-0.526 -1.304,-0.854 v 0 l -18.522,-15.097 c -0.412,-0.336 -0.788,-0.715 -1.12,-1.131 v 0 l -14.853,-18.584 c -0.318,-0.398 -0.597,-0.829 -0.83,-1.287 l 0.001,-0.001 -10.6601,-21.008 13.3761,-6.787"
       id="path846"
       style="fill:#e69138" />
  </g>
  <g
     fill="#62aeca"
     fill-opacity="1"
     stroke="none"
     transform="matrix(-1.6770928,0.96827,-0.96827,-1.6770928,1175.9525,466.07901)"
     font-family="Sans"
     font-size="9px"
     font-weight="400"
     font-style="normal"
     id="g858"
     style="fill-rule:evenodd;stroke-width:1;stroke-linecap:square;stroke-linejoin:bevel;fill:#e69138">
    <path
       vector-effect="none"
       fill-rule="nonzero"
       d="m 114.335,84.8645 -5.739,24.0605 -7.296,-1.74 7.459,0.782 -2.552,24.35 -7.4587,-0.782 7.4887,-0.404 1.291,23.933 -14.9783,0.808 -1.2906,-23.933 c -0.0072,-0.134 -0.0108,-0.268 -0.0108,-0.404 0,-0.265 0.0137,-0.527 0.0403,-0.782 h 5e-4 l 2.552,-24.35 c 0.0337,-0.329 0.0885,-0.65 0.1625,-0.96 l 0.0014,0.002 5.7393,-24.0609 14.5907,3.4804"
       id="path856"
       style="fill:#e69138" />
  </g>
  <g
     fill="#ca8d62"
     fill-opacity="1"
     stroke="none"
     transform="matrix(-1.6770928,0.96827,-0.96827,-1.6770928,1175.9525,466.07901)"
     font-family="Sans"
     font-size="9px"
     font-weight="400"
     font-style="normal"
     id="g868"
     style="fill-rule:evenodd;stroke-width:1;stroke-linecap:square;stroke-linejoin:bevel;fill:#3c78d8">
    <path
       vector-effect="none"
       fill-rule="nonzero"
       d="m 287.581,68.2892 15.734,15.3803 c 0.36,0.3515 0.684,0.7388 0.967,1.156 v 8e-4 l 12.445,18.3717 c 0.262,0.385 0.489,0.795 0.676,1.226 l -0.001,0.003 8.944,20.674 c 0.179,0.409 0.321,0.837 0.423,1.279 l -0.001,0.004 5.105,21.999 -14.611,3.391 -5.105,-21.999 7.305,-1.696 -6.883,2.978 -8.944,-20.675 6.883,-2.978 -6.209,4.207 -12.446,-18.3719 6.209,-4.2064 -5.242,5.3632 -15.734,-15.3803 10.485,-10.7264"
       id="path866"
       style="fill:#3c78d8" />
  </g>
  <g
     fill="#be62ca"
     fill-opacity="1"
     stroke="none"
     transform="matrix(-1.6770928,0.96827,-0.96827,-1.6770928,1175.9525,466.07901)"
     font-family="Sans"
     font-size="9px"
     font-weight="400"
     font-style="normal"
     id="g878"
     style="fill-rule:evenodd;stroke-width:1;stroke-linecap:square;stroke-linejoin:bevel;fill:#3c78d8">
    <path
       vector-effect="none"
       fill-rule="nonzero"
       d="m 233.756,46.1604 19.143,4.4843 c 0.327,0.0746 0.642,0.1711 0.946,0.2864 l -0.001,0.0015 17.985,6.8076 -5.31,14.0287 -17.985,-6.8075 2.655,-7.0144 -1.711,7.3023 -19.143,-4.4842 3.421,-14.6047"
       id="path876"
       style="fill:#3c78d8" />
  </g>
  <g
     fill="none"
     stroke="#000000"
     stroke-opacity="1"
     stroke-width="1"
     stroke-linecap="square"
     stroke-linejoin="bevel"
     transform="matrix(1.93654,0,0,1.93654,261,245)"
     font-family="Sans"
     font-size="9px"
     font-weight="400"
     font-style="normal"
     id="g880"
     style="fill-rule:evenodd" />
  <g
     fill="none"
     stroke="#000000"
     stroke-opacity="1"
     stroke-width="1"
     stroke-linecap="square"
     stroke-linejoin="bevel"
     transform="matrix(1.93654,0,0,1.93654,261,245)"
     font-family="Sans"
     font-size="9px"
     font-weight="400"
     font-style="normal"
     id="g882"
     style="fill-rule:evenodd" />
  <g
     fill="none"
     stroke="#000000"
     stroke-opacity="1"
     stroke-width="1"
     stroke-linecap="square"
     stroke-linejoin="bevel"
     font-family="Sans"
     font-size="9px"
     font-weight="400"
     font-style="normal"
     id="g884"
     style="fill-rule:evenodd" />
  <text
     xml:space="preserve"
     style="font-style:normal;font-weight:normal;font-size:24px;line-height:1.25;font-family:sans-serif;fill:#000000;fill-opacity:1;stroke:none;stroke-width:0.75"
     x="371.41025"
     y="505.25256"
     id="text4934-9-3"><tspan
       sodipodi:role="line"
       id="tspan4932-1-6"
       style="font-weight:bold;font-size:24px;fill:#3c78d8;stroke-width:0.75"
       x="371.41025"
       y="505.25256">36..38</tspan></text>
  <text
     xml:space="preserve"
     style="font-style:normal;font-weight:normal;font-size:24px;line-height:1.25;font-family:sans-serif;fill:#000000;fill-opacity:1;stroke:none;stroke-width:0.75"
     x="407.99985"
     y="341.315"
     id="text4934-3"><tspan
       sodipodi:role="line"
       id="tspan4932-6"
       style="font-weight:bold;font-size:24px;fill:#e69138;stroke-width:0.75"
       x="407.99985"
       y="341.315">31..40</tspan></text>
  <text
     xml:space="preserve"
     style="font-style:normal;font-weight:normal;font-size:24px;line-height:1.25;font-family:sans-serif;fill:#000000;fill-opacity:1;stroke:none;stroke-width:0.75"
     x="265.5311"
     y="394.47311"
     id="text4934"><tspan
       sodipodi:role="line"
       id="tspan4932"
       style="font-weight:bold;font-size:24px;fill:#e69138;stroke-width:0.75"
       x="265.5311"
       y="394.47311">15..30</tspan></text>
  <text
     xml:space="preserve"
     style="font-style:normal;font-weight:normal;font-size:24px;line-height:1.25;font-family:sans-serif;fill:#000000;fill-opacity:1;stroke:none;stroke-width:0.75"
     x="265.53339"
     y="462.45358"
     id="text4934-9"><tspan
       sodipodi:role="line"
       id="tspan4932-1"
       style="font-weight:bold;font-size:24px;fill:#3c78d8;stroke-width:0.75"
       x="265.53339"
       y="462.45358">20..35</tspan></text>
  <text
     xml:space="preserve"
     style="font-style:normal;font-weight:normal;font-size:24px;line-height:1.25;font-family:sans-serif;fill:#000000;fill-opacity:1;stroke:none;stroke-width:0.75"
     x="440.03806"
     y="606.38593"
     id="text4934-9-7"><tspan
       sodipodi:role="line"
       id="tspan4932-1-5"
       style="font-weight:bold;font-size:24px;fill:#3c78d8;stroke-width:0.75"
       x="440.03806"
       y="606.38593">39..50</tspan></text>
  <text
     xml:space="preserve"
     style="font-style:normal;font-weight:normal;font-size:24px;line-height:1.25;font-family:sans-serif;fill:#000000;fill-opacity:1;stroke:none;stroke-width:0.75"
     x="679.29474"
     y="207.0775"
     id="text4934-7"><tspan
       sodipodi:role="line"
       id="tspan4932-5"
       style="font-weight:bold;font-size:24px;fill:#e69138;stroke-width:0.75"
       x="679.29474"
       y="207.0775">41..60</tspan></text>
  <text
     xml:space="preserve"
     style="font-style:normal;font-weight:normal;font-size:24px;line-height:1.25;font-family:sans-serif;fill:#000000;fill-opacity:1;stroke:none;stroke-width:0.75"
     x="921.07758"
     y="357.73062"
     id="text4934-35"><tspan
       sodipodi:role="line"
       id="tspan4932-62"
       style="font-weight:bold;font-size:24px;fill:#e69138;stroke-width:0.75"
       x="921.07758"
       y="357.73062">61..81</tspan></text>
  <text
     xml:space="preserve"
     style="font-style:normal;font-weight:normal;font-size:24px;line-height:1.25;font-family:sans-serif;fill:#000000;fill-opacity:1;stroke:none;stroke-width:0.75"
     x="1033.8511"
     y="422.63681"
     id="text4934-35-0"><tspan
       sodipodi:role="line"
       id="tspan4932-62-9"
       style="font-weight:bold;font-size:24px;fill:#e69138;stroke-width:0.75"
       x="1033.8511"
       y="422.63681">82..93</tspan></text>
  <text
     xml:space="preserve"
     style="font-style:normal;font-weight:normal;font-size:24px;line-height:1.25;font-family:sans-serif;fill:#000000;fill-opacity:1;stroke:none;stroke-width:0.75"
     x="1036.2286"
     y="491.83621"
     id="text4934-9-2"><tspan
       sodipodi:role="line"
       id="tspan4932-1-7"
       style="font-weight:bold;font-size:24px;fill:#3c78d8;stroke-width:0.75"
       x="1036.2286"
       y="491.83621">71..82</tspan></text>
  <text
     xml:space="preserve"
     style="font-style:normal;font-weight:normal;font-size:24px;line-height:1.25;font-family:sans-serif;fill:#000000;fill-opacity:1;stroke:none;stroke-width:0.75"
     x="696.86206"
     y="655.37268"
     id="text4934-9-9"><tspan
       sodipodi:role="line"
       id="tspan4932-1-1"
       style="font-weight:bold;font-size:24px;fill:#3c78d8;stroke-width:0.75"
       x="696.86206"
       y="655.37268">51..57</tspan></text>
</svg>
