<svg version="1.1" viewBox="0.0 0.0 960.0 540.0" fill="none" stroke="none" stroke-linecap="square" stroke-miterlimit="10" xmlns:xlink="http://www.w3.org/1999/xlink" xmlns="http://www.w3.org/2000/svg"><clipPath id="g1fb5e7b80aa_0_48.0"><path d="m0 0l960.0 0l0 540.0l-960.0 0l0 -540.0z" clip-rule="nonzero"/></clipPath><g clip-path="url(#g1fb5e7b80aa_0_48.0)"><path fill="#ffffff" d="m0 0l960.0 0l0 540.0l-960.0 0z" fill-rule="evenodd"/><path fill="#808080" d="m61.412075 246.00024l0 0c0 -6.627548 5.372692 -12.000244 12.00024 -12.000244l112.9759 0c3.182663 0 6.23497 1.2643127 8.485443 3.5147858c2.2504883 2.2504883 3.514801 5.3027954 3.514801 8.485458l0 47.99951c0 6.6275635 -5.372696 12.000244 -12.000244 12.000244l-112.9759 0l0 0c-6.627548 0 -12.00024 -5.3726807 -12.00024 -12.000244z" fill-rule="evenodd"/><path stroke="#808080" stroke-width="1.0" stroke-linejoin="round" stroke-linecap="butt" d="m61.412075 246.00024l0 0c0 -6.627548 5.372692 -12.000244 12.00024 -12.000244l112.9759 0c3.182663 0 6.23497 1.2643127 8.485443 3.5147858c2.2504883 2.2504883 3.514801 5.3027954 3.514801 8.485458l0 47.99951c0 6.6275635 -5.372696 12.000244 -12.000244 12.000244l-112.9759 0l0 0c-6.627548 0 -12.00024 -5.3726807 -12.00024 -12.000244z" fill-rule="evenodd"/><path fill="#3c78d8" d="m198.37796 246.00024l0 0c0 -6.627548 5.3726807 -12.000244 12.000229 -12.000244l84.25148 0c3.1826782 0 6.2349854 1.2643127 8.485474 3.5147858c2.2504578 2.2504883 3.5147705 5.3027954 3.5147705 8.485458l0 47.99951c0 6.6275635 -5.3726807 12.000244 -12.000244 12.000244l-84.25148 0l0 0c-6.627548 0 -12.000229 -5.3726807 -12.000229 -12.000244z" fill-rule="evenodd"/><path stroke="#3c78d8" stroke-width="1.0" stroke-linejoin="round" stroke-linecap="butt" d="m198.37796 246.00024l0 0c0 -6.627548 5.3726807 -12.000244 12.000229 -12.000244l84.25148 0c3.1826782 0 6.2349854 1.2643127 8.485474 3.5147858c2.2504578 2.2504883 3.5147705 5.3027954 3.5147705 8.485458l0 47.99951c0 6.6275635 -5.3726807 12.000244 -12.000244 12.000244l-84.25148 0l0 0c-6.627548 0 -12.000229 -5.3726807 -12.000229 -12.000244z" fill-rule="evenodd"/><path fill="#3c78d8" d="m306.6299 246.00024l0 0c0 -6.627548 5.372711 -12.000244 12.000244 -12.000244l84.251495 0c3.1826477 0 6.234955 1.2643127 8.485443 3.5147858c2.2504883 2.2504883 3.514801 5.3027954 3.514801 8.485458l0 47.99951c0 6.6275635 -5.372711 12.000244 -12.000244 12.000244l-84.251495 0l0 0c-6.627533 0 -12.000244 -5.3726807 -12.000244 -12.000244z" fill-rule="evenodd"/><path stroke="#3c78d8" stroke-width="1.0" stroke-linejoin="round" stroke-linecap="butt" d="m306.6299 246.00024l0 0c0 -6.627548 5.372711 -12.000244 12.000244 -12.000244l84.251495 0c3.1826477 0 6.234955 1.2643127 8.485443 3.5147858c2.2504883 2.2504883 3.514801 5.3027954 3.514801 8.485458l0 47.99951c0 6.6275635 -5.372711 12.000244 -12.000244 12.000244l-84.251495 0l0 0c-6.627533 0 -12.000244 -5.3726807 -12.000244 -12.000244z" fill-rule="evenodd"/><path fill="#000000" fill-opacity="0.0" d="m89.6168 182.28346l80.56693 0l0 51.716537l-80.56693 0z" fill-rule="evenodd"/><path fill="#e69138" d="m99.8043 211.97722l3.640625 -0.375q0.15625 1.234375 0.921875 1.953125q0.765625 0.71875 1.765625 0.71875q1.15625 0 1.9375 -0.921875q0.796875 -0.9375 0.796875 -2.8125q0 -1.75 -0.78125 -2.625q-0.78125 -0.890625 -2.046875 -0.890625q-1.578125 0 -2.828125 1.40625l-2.96875 -0.4375l1.875 -9.9375l9.671875 0l0 3.4375l-6.890625 0l-0.578125 3.234375q1.21875 -0.609375 2.5 -0.609375q2.4375 0 4.125 1.765625q1.6875 1.765625 1.6875 4.59375q0 2.359375 -1.359375 4.203125q-1.859375 2.53125 -5.171875 2.53125q-2.640625 0 -4.3125 -1.421875q-1.65625 -1.421875 -1.984375 -3.8125zm15.543686 4.90625l0 -3.65625l3.671875 0l0 3.65625l-3.671875 0zm7.40596 0l0 -3.65625l3.671875 0l0 3.65625l-3.671875 0zm15.984077 0l-3.65625 0l0 -13.78125q-2.0 1.875 -4.71875 2.765625l0 -3.3125q1.4375 -0.46875 3.109375 -1.78125q1.671875 -1.3125 2.296875 -3.046875l2.96875 0l0 19.15625zm11.653061 -19.15625q2.78125 0 4.34375 1.96875q1.859375 2.34375 1.859375 7.78125q0 5.40625 -1.875 7.78125q-1.546875 1.953125 -4.328125 1.953125q-2.78125 0 -4.484375 -2.140625q-1.703125 -2.140625 -1.703125 -7.640625q0 -5.390625 1.875 -7.75q1.546875 -1.953125 4.3125 -1.953125zm0 3.03125q-0.65625 0 -1.1875 0.421875q-0.515625 0.421875 -0.796875 1.515625q-0.375 1.421875 -0.375 4.78125q0 3.359375 0.328125 4.609375q0.34375 1.25 0.859375 1.671875q0.515625 0.421875 1.171875 0.421875q0.671875 0 1.1875 -0.421875q0.515625 -0.421875 0.8125 -1.515625q0.375 -1.40625 0.375 -4.765625q0 -3.359375 -0.34375 -4.609375q-0.34375 -1.265625 -0.859375 -1.6875q-0.5 -0.421875 -1.171875 -0.421875z" fill-rule="nonzero"/><path fill="#000000" fill-opacity="0.0" d="m89.6168 306.0l80.56693 0l0 51.716522l-80.56693 0z" fill-rule="evenodd"/><path fill="#3c78d8" d="m99.6168 335.5375l3.546875 -0.4375q0.171875 1.359375 0.90625 2.078125q0.75 0.71875 1.796875 0.71875q1.125 0 1.90625 -0.859375q0.78125 -0.859375 0.78125 -2.328125q0 -1.375 -0.75 -2.171875q-0.734375 -0.8125 -1.8125 -0.8125q-0.703125 0 -1.671875 0.265625l0.40625 -2.96875q1.484375 0.03125 2.265625 -0.640625q0.78125 -0.6875 0.78125 -1.828125q0 -0.953125 -0.578125 -1.53125q-0.578125 -0.578125 -1.53125 -0.578125q-0.921875 0 -1.59375 0.65625q-0.65625 0.65625 -0.8125 1.90625l-3.359375 -0.578125q0.34375 -1.734375 1.046875 -2.765625q0.71875 -1.03125 1.984375 -1.625q1.265625 -0.59375 2.84375 -0.59375q2.703125 0 4.328125 1.71875q1.34375 1.40625 1.34375 3.171875q0 2.515625 -2.75 4.015625q1.640625 0.34375 2.609375 1.578125q0.984375 1.21875 0.984375 2.9375q0 2.515625 -1.828125 4.296875q-1.828125 1.765625 -4.5625 1.765625q-2.59375 0 -4.296875 -1.484375q-1.703125 -1.5 -1.984375 -3.90625zm15.731186 5.0625l0 -3.65625l3.671875 0l0 3.65625l-3.671875 0zm7.40596 0l0 -3.65625l3.671875 0l0 3.65625l-3.671875 0zm9.765327 -10.296875q-1.421875 -0.59375 -2.0625 -1.640625q-0.640625 -1.046875 -0.640625 -2.296875q0 -2.140625 1.484375 -3.53125q1.5 -1.390625 4.234375 -1.390625q2.734375 0 4.234375 1.390625q1.5 1.390625 1.5 3.53125q0 1.328125 -0.6875 2.359375q-0.6875 1.03125 -1.9375 1.578125q1.578125 0.640625 2.40625 1.875q0.828125 1.21875 0.828125 2.8125q0 2.640625 -1.6875 4.296875q-1.6875 1.65625 -4.484375 1.65625q-2.59375 0 -4.328125 -1.375q-2.046875 -1.609375 -2.046875 -4.421875q0 -1.546875 0.765625 -2.84375q0.765625 -1.296875 2.421875 -2.0zm0.765625 -3.6875q0 1.09375 0.609375 1.71875q0.625 0.609375 1.640625 0.609375q1.046875 0 1.671875 -0.625q0.625 -0.625 0.625 -1.703125q0 -1.03125 -0.625 -1.640625q-0.609375 -0.625 -1.625 -0.625q-1.046875 0 -1.671875 0.625q-0.625 0.625 -0.625 1.640625zm-0.34375 8.171875q0 1.515625 0.765625 2.359375q0.78125 0.84375 1.9375 0.84375q1.140625 0 1.875 -0.8125q0.75 -0.8125 0.75 -2.34375q0 -1.34375 -0.765625 -2.15625q-0.75 -0.8125 -1.90625 -0.8125q-1.34375 0 -2.0 0.921875q-0.65625 0.921875 -0.65625 2.0z" fill-rule="nonzero"/><path fill="#000000" fill-opacity="0.0" d="m212.22572 306.0l80.56694 0l0 51.716522l-80.56694 0z" fill-rule="evenodd"/><path fill="#3c78d8" d="m222.42885 336.19376l3.546875 -0.390625q0.125 1.078125 0.671875 1.59375q0.546875 0.515625 1.453125 0.515625q1.125 0 1.921875 -1.03125q0.796875 -1.046875 1.015625 -4.328125q-1.375 1.609375 -3.453125 1.609375q-2.25 0 -3.890625 -1.734375q-1.625 -1.75 -1.625 -4.53125q0 -2.90625 1.71875 -4.671875q1.734375 -1.78125 4.40625 -1.78125q2.890625 0 4.75 2.25q1.875 2.234375 1.875 7.375q0 5.234375 -1.953125 7.5625q-1.9375 2.3125 -5.046875 2.3125q-2.234375 0 -3.625 -1.1875q-1.375 -1.203125 -1.765625 -3.5625zm8.28125 -8.0q0 -1.765625 -0.8125 -2.734375q-0.8125 -0.984375 -1.875 -0.984375q-1.015625 0 -1.6875 0.796875q-0.671875 0.796875 -0.671875 2.625q0 1.84375 0.71875 2.71875q0.734375 0.859375 1.828125 0.859375q1.0625 0 1.78125 -0.828125q0.71875 -0.84375 0.71875 -2.453125zm7.246811 12.40625l0 -3.65625l3.671875 0l0 3.65625l-3.671875 0zm7.40596 0l0 -3.65625l3.671875 0l0 3.65625l-3.671875 0zm15.984085 0l-3.65625 0l0 -13.78125q-2.0 1.875 -4.71875 2.765625l0 -3.3125q1.4375 -0.46875 3.109375 -1.78125q1.671875 -1.3125 2.296875 -3.046875l2.96875 0l0 19.15625zm13.353577 0l-3.65625 0l0 -13.78125q-2.0 1.875 -4.71875 2.765625l0 -3.3125q1.4375 -0.46875 3.109375 -1.78125q1.671875 -1.3125 2.296875 -3.046875l2.96875 0l0 19.15625z" fill-rule="nonzero"/><path fill="#808080" d="m414.8819 246.00024l0 0c0 -6.627548 5.3726807 -12.000244 12.000244 -12.000244l112.97589 0c3.1826782 0 6.2349854 1.2643127 8.485474 3.5147858c2.2504272 2.2504883 3.5147705 5.3027954 3.5147705 8.485458l0 47.99951c0 6.6275635 -5.3726807 12.000244 -12.000244 12.000244l-112.97589 0l0 0c-6.6275635 0 -12.000244 -5.3726807 -12.000244 -12.000244z" fill-rule="evenodd"/><path stroke="#808080" stroke-width="1.0" stroke-linejoin="round" stroke-linecap="butt" d="m414.8819 246.00024l0 0c0 -6.627548 5.3726807 -12.000244 12.000244 -12.000244l112.97589 0c3.1826782 0 6.2349854 1.2643127 8.485474 3.5147858c2.2504272 2.2504883 3.5147705 5.3027954 3.5147705 8.485458l0 47.99951c0 6.6275635 -5.3726807 12.000244 -12.000244 12.000244l-112.97589 0l0 0c-6.6275635 0 -12.000244 -5.3726807 -12.000244 -12.000244z" fill-rule="evenodd"/><path fill="#e69138" d="m551.8583 246.00024l0 0c0 -6.627548 5.3726807 -12.000244 12.000244 -12.000244l128.31445 0c3.1826782 0 6.2349854 1.2643127 8.485474 3.5147858c2.2504883 2.2504883 3.5147705 5.3027954 3.5147705 8.485458l0 47.99951c0 6.6275635 -5.3726807 12.000244 -12.000244 12.000244l-128.31445 0c-6.6275635 0 -12.000244 -5.3726807 -12.000244 -12.000244z" fill-rule="evenodd"/><path stroke="#e69138" stroke-width="1.0" stroke-linejoin="round" stroke-linecap="butt" d="m551.8583 246.00024l0 0c0 -6.627548 5.3726807 -12.000244 12.000244 -12.000244l128.31445 0c3.1826782 0 6.2349854 1.2643127 8.485474 3.5147858c2.2504883 2.2504883 3.5147705 5.3027954 3.5147705 8.485458l0 47.99951c0 6.6275635 -5.3726807 12.000244 -12.000244 12.000244l-128.31445 0c-6.6275635 0 -12.000244 -5.3726807 -12.000244 -12.000244z" fill-rule="evenodd"/><path fill="#808080" d="m704.1732 246.00024l0 0c0 -6.627548 5.3726807 -12.000244 12.000244 -12.000244l170.42474 0c3.1826172 0 6.2349243 1.2643127 8.485413 3.5147858c2.2504883 2.2504883 3.5148315 5.3027954 3.5148315 8.485458l0 47.99951c0 6.6275635 -5.3727417 12.000244 -12.000244 12.000244l-170.42474 0c-6.6275635 0 -12.000244 -5.3726807 -12.000244 -12.000244z" fill-rule="evenodd"/><path stroke="#808080" stroke-width="1.0" stroke-linejoin="round" stroke-linecap="butt" d="m704.1732 246.00024l0 0c0 -6.627548 5.3726807 -12.000244 12.000244 -12.000244l170.42474 0c3.1826172 0 6.2349243 1.2643127 8.485413 3.5147858c2.2504883 2.2504883 3.5148315 5.3027954 3.5148315 8.485458l0 47.99951c0 6.6275635 -5.3727417 12.000244 -12.000244 12.000244l-170.42474 0c-6.6275635 0 -12.000244 -5.3726807 -12.000244 -12.000244z" fill-rule="evenodd"/><path fill="#000000" fill-opacity="0.0" d="m436.89764 182.28346l92.944885 0l0 51.716537l-92.944885 0z" fill-rule="evenodd"/><path fill="#e69138" d="m456.38202 216.88347l-3.65625 0l0 -13.78125q-2.0 1.875 -4.71875 2.765625l0 -3.3125q1.4375 -0.46875 3.109375 -1.78125q1.671875 -1.3125 2.296875 -3.046875l2.96875 0l0 19.15625zm13.353577 0l-3.65625 0l0 -13.78125q-2.0 1.875 -4.71875 2.765625l0 -3.3125q1.4375 -0.46875 3.109375 -1.78125q1.671875 -1.3125 2.296875 -3.046875l2.96875 0l0 19.15625zm6.2467957 0l0 -3.65625l3.671875 0l0 3.65625l-3.671875 0zm7.4059753 0l0 -3.65625l3.671875 0l0 3.65625l-3.671875 0zm15.98407 0l-3.65625 0l0 -13.78125q-2.0 1.875 -4.71875 2.765625l0 -3.3125q1.4375 -0.46875 3.109375 -1.78125q1.671875 -1.3125 2.296875 -3.046875l2.96875 0l0 19.15625zm5.528076 -4.90625l3.640625 -0.375q0.15625 1.234375 0.921875 1.953125q0.765625 0.71875 1.765625 0.71875q1.15625 0 1.9375 -0.921875q0.796875 -0.9375 0.796875 -2.8125q0 -1.75 -0.78125 -2.625q-0.78125 -0.890625 -2.046875 -0.890625q-1.578125 0 -2.828125 1.40625l-2.96875 -0.4375l1.875 -9.9375l9.671875 0l0 3.4375l-6.890625 0l-0.578125 3.234375q1.21875 -0.609375 2.5 -0.609375q2.4375 0 4.125 1.765625q1.6875 1.765625 1.6875 4.59375q0 2.359375 -1.359375 4.203125q-1.859375 2.53125 -5.171875 2.53125q-2.640625 0 -4.3125 -1.421875q-1.65625 -1.421875 -1.984375 -3.8125z" fill-rule="nonzero"/><path fill="#000000" fill-opacity="0.0" d="m581.54333 182.28346l94.33069 0l0 51.716537l-94.33069 0z" fill-rule="evenodd"/><path fill="#e69138" d="m601.0277 216.88347l-3.65625 0l0 -13.78125q-2.0 1.875 -4.71875 2.765625l0 -3.3125q1.4375 -0.46875 3.109375 -1.78125q1.671875 -1.3125 2.296875 -3.046875l2.96875 0l0 19.15625zm17.85614 -14.40625l-3.53125 0.390625q-0.125 -1.09375 -0.671875 -1.609375q-0.546875 -0.53125 -1.421875 -0.53125q-1.15625 0 -1.96875 1.046875q-0.796875 1.046875 -1.0 4.328125q1.359375 -1.609375 3.390625 -1.609375q2.296875 0 3.921875 1.75q1.640625 1.734375 1.640625 4.5q0 2.921875 -1.71875 4.703125q-1.71875 1.765625 -4.40625 1.765625q-2.890625 0 -4.765625 -2.25q-1.859375 -2.25 -1.859375 -7.359375q0 -5.25 1.9375 -7.5625q1.953125 -2.3125 5.046875 -2.3125q2.171875 0 3.59375 1.21875q1.4375 1.21875 1.8125 3.53125zm-8.28125 7.96875q0 1.796875 0.8125 2.765625q0.828125 0.96875 1.875 0.96875q1.015625 0 1.6875 -0.796875q0.6875 -0.796875 0.6875 -2.609375q0 -1.859375 -0.734375 -2.71875q-0.71875 -0.875 -1.8125 -0.875q-1.0625 0 -1.796875 0.828125q-0.71875 0.828125 -0.71875 2.4375zm11.496826 6.4375l0 -3.65625l3.671875 0l0 3.65625l-3.671875 0zm7.405945 0l0 -3.65625l3.671875 0l0 3.65625l-3.671875 0zm18.98413 -3.390625l0 3.390625l-12.828125 0q0.21875 -1.921875 1.25 -3.640625q1.046875 -1.734375 4.125 -4.578125q2.46875 -2.3125 3.03125 -3.125q0.75 -1.140625 0.75 -2.25q0 -1.21875 -0.65625 -1.875q-0.65625 -0.65625 -1.8125 -0.65625q-1.140625 0 -1.828125 0.6875q-0.671875 0.6875 -0.78125 2.296875l-3.640625 -0.375q0.328125 -3.015625 2.046875 -4.328125q1.71875 -1.3125 4.296875 -1.3125q2.8125 0 4.421875 1.53125q1.625 1.515625 1.625 3.78125q0 1.28125 -0.46875 2.453125q-0.453125 1.15625 -1.453125 2.4375q-0.671875 0.84375 -2.40625 2.4375q-1.71875 1.578125 -2.1875 2.109375q-0.453125 0.515625 -0.75 1.015625l7.265625 0zm14.82489 0l0 3.390625l-12.828125 0q0.21875 -1.921875 1.25 -3.640625q1.046875 -1.734375 4.125 -4.578125q2.46875 -2.3125 3.03125 -3.125q0.75 -1.140625 0.75 -2.25q0 -1.21875 -0.65625 -1.875q-0.65625 -0.65625 -1.8125 -0.65625q-1.140625 0 -1.828125 0.6875q-0.671875 0.6875 -0.78125 2.296875l-3.640625 -0.375q0.328125 -3.015625 2.046875 -4.328125q1.71875 -1.3125 4.296875 -1.3125q2.8125 0 4.421875 1.53125q1.625 1.515625 1.625 3.78125q0 1.28125 -0.46875 2.453125q-0.453125 1.15625 -1.453125 2.4375q-0.671875 0.84375 -2.40625 2.4375q-1.71875 1.578125 -2.1875 2.109375q-0.453125 0.515625 -0.75 1.015625l7.265625 0z" fill-rule="nonzero"/><path fill="#000000" fill-opacity="0.0" d="m761.10236 182.28346l94.33069 0l0 51.716537l-94.33069 0z" fill-rule="evenodd"/><path fill="#e69138" d="m783.58673 213.49284l0 3.390625l-12.828125 0q0.21875 -1.921875 1.25 -3.640625q1.046875 -1.734375 4.125 -4.578125q2.46875 -2.3125 3.03125 -3.125q0.75 -1.140625 0.75 -2.25q0 -1.21875 -0.65625 -1.875q-0.65625 -0.65625 -1.8125 -0.65625q-1.140625 0 -1.828125 0.6875q-0.671875 0.6875 -0.78125 2.296875l-3.640625 -0.375q0.328125 -3.015625 2.046875 -4.328125q1.71875 -1.3125 4.296875 -1.3125q2.8125 0 4.421875 1.53125q1.625 1.515625 1.625 3.78125q0 1.28125 -0.46875 2.453125q-0.453125 1.15625 -1.453125 2.4375q-0.671875 0.84375 -2.40625 2.4375q-1.71875 1.578125 -2.1875 2.109375q-0.453125 0.515625 -0.75 1.015625l7.265625 0zm2.3405762 -1.671875l3.546875 -0.4375q0.171875 1.359375 0.90625 2.078125q0.75 0.71875 1.796875 0.71875q1.125 0 1.90625 -0.859375q0.78125 -0.859375 0.78125 -2.328125q0 -1.375 -0.75 -2.171875q-0.734375 -0.8125 -1.8125 -0.8125q-0.703125 0 -1.671875 0.265625l0.40625 -2.96875q1.484375 0.03125 2.265625 -0.640625q0.78125 -0.6875 0.78125 -1.828125q0 -0.953125 -0.578125 -1.53125q-0.578125 -0.578125 -1.53125 -0.578125q-0.921875 0 -1.59375 0.65625q-0.65625 0.65625 -0.8125 1.90625l-3.359375 -0.578125q0.34375 -1.734375 1.046875 -2.765625q0.71875 -1.03125 1.984375 -1.625q1.265625 -0.59375 2.84375 -0.59375q2.703125 0 4.328125 1.71875q1.34375 1.40625 1.34375 3.171875q0 2.515625 -2.75 4.015625q1.640625 0.34375 2.609375 1.578125q0.984375 1.21875 0.984375 2.9375q0 2.515625 -1.828125 4.296875q-1.828125 1.765625 -4.5625 1.765625q-2.59375 0 -4.296875 -1.484375q-1.703125 -1.5 -1.984375 -3.90625zm15.731201 5.0625l0 -3.65625l3.671875 0l0 3.65625l-3.671875 0zm7.405945 0l0 -3.65625l3.671875 0l0 3.65625l-3.671875 0zm6.499695 -5.0625l3.546875 -0.4375q0.171875 1.359375 0.90625 2.078125q0.75 0.71875 1.796875 0.71875q1.125 0 1.90625 -0.859375q0.78125 -0.859375 0.78125 -2.328125q0 -1.375 -0.75 -2.171875q-0.734375 -0.8125 -1.8125 -0.8125q-0.703125 0 -1.671875 0.265625l0.40625 -2.96875q1.484375 0.03125 2.265625 -0.640625q0.78125 -0.6875 0.78125 -1.828125q0 -0.953125 -0.578125 -1.53125q-0.578125 -0.578125 -1.53125 -0.578125q-0.921875 0 -1.59375 0.65625q-0.65625 0.65625 -0.8125 1.90625l-3.359375 -0.578125q0.34375 -1.734375 1.046875 -2.765625q0.71875 -1.03125 1.984375 -1.625q1.265625 -0.59375 2.84375 -0.59375q2.703125 0 4.328125 1.71875q1.34375 1.40625 1.34375 3.171875q0 2.515625 -2.75 4.015625q1.640625 0.34375 2.609375 1.578125q0.984375 1.21875 0.984375 2.9375q0 2.515625 -1.828125 4.296875q-1.828125 1.765625 -4.5625 1.765625q-2.59375 0 -4.296875 -1.484375q-1.703125 -1.5 -1.984375 -3.90625zm27.309326 1.671875l0 3.390625l-12.828125 0q0.21875 -1.921875 1.25 -3.640625q1.046875 -1.734375 4.125 -4.578125q2.46875 -2.3125 3.03125 -3.125q0.75 -1.140625 0.75 -2.25q0 -1.21875 -0.65625 -1.875q-0.65625 -0.65625 -1.8125 -0.65625q-1.140625 0 -1.828125 0.6875q-0.671875 0.6875 -0.78125 2.296875l-3.640625 -0.375q0.328125 -3.015625 2.046875 -4.328125q1.71875 -1.3125 4.296875 -1.3125q2.8125 0 4.421875 1.53125q1.625 1.515625 1.625 3.78125q0 1.28125 -0.46875 2.453125q-0.453125 1.15625 -1.453125 2.4375q-0.671875 0.84375 -2.40625 2.4375q-1.71875 1.578125 -2.1875 2.109375q-0.453125 0.515625 -0.75 1.015625l7.265625 0z" fill-rule="nonzero"/><path fill="#000000" fill-opacity="0.0" d="m436.89764 306.0l94.33069 0l0 51.716522l-94.33069 0z" fill-rule="evenodd"/><path fill="#3c78d8" d="m456.38202 340.6l-3.65625 0l0 -13.78125q-2.0 1.875 -4.71875 2.765625l0 -3.3125q1.4375 -0.46875 3.109375 -1.78125q1.671875 -1.3125 2.296875 -3.046875l2.96875 0l0 19.15625zm17.85617 -14.40625l-3.53125 0.390625q-0.125 -1.09375 -0.671875 -1.609375q-0.546875 -0.53125 -1.421875 -0.53125q-1.15625 0 -1.96875 1.046875q-0.796875 1.046875 -1.0 4.328125q1.359375 -1.609375 3.390625 -1.609375q2.296875 0 3.921875 1.75q1.640625 1.734375 1.640625 4.5q0 2.921875 -1.71875 4.703125q-1.71875 1.765625 -4.40625 1.765625q-2.890625 0 -4.765625 -2.25q-1.859375 -2.25 -1.859375 -7.359375q0 -5.25 1.9375 -7.5625q1.953125 -2.3125 5.046875 -2.3125q2.171875 0 3.59375 1.21875q1.4375 1.21875 1.8125 3.53125zm-8.28125 7.96875q0 1.796875 0.8125 2.765625q0.828125 0.96875 1.875 0.96875q1.015625 0 1.6875 -0.796875q0.6875 -0.796875 0.6875 -2.609375q0 -1.859375 -0.734375 -2.71875q-0.71875 -0.875 -1.8125 -0.875q-1.0625 0 -1.796875 0.828125q-0.71875 0.828125 -0.71875 2.4375zm11.496826 6.4375l0 -3.65625l3.671875 0l0 3.65625l-3.671875 0zm7.405945 0l0 -3.65625l3.671875 0l0 3.65625l-3.671875 0zm18.9841 -3.390625l0 3.390625l-12.828125 0q0.21875 -1.921875 1.25 -3.640625q1.046875 -1.734375 4.125 -4.578125q2.46875 -2.3125 3.03125 -3.125q0.75 -1.140625 0.75 -2.25q0 -1.21875 -0.65625 -1.875q-0.65625 -0.65625 -1.8125 -0.65625q-1.140625 0 -1.828125 0.6875q-0.671875 0.6875 -0.78125 2.296875l-3.640625 -0.375q0.328125 -3.015625 2.046875 -4.328125q1.71875 -1.3125 4.296875 -1.3125q2.8125 0 4.421875 1.53125q1.625 1.515625 1.625 3.78125q0 1.28125 -0.46875 2.453125q-0.453125 1.15625 -1.453125 2.4375q-0.671875 0.84375 -2.40625 2.4375q-1.71875 1.578125 -2.1875 2.109375q-0.453125 0.515625 -0.75 1.015625l7.265625 0zm8.653076 -15.765625q2.78125 0 4.34375 1.96875q1.859375 2.34375 1.859375 7.78125q0 5.40625 -1.875 7.78125q-1.546875 1.953125 -4.328125 1.953125q-2.7812805 0 -4.4844055 -2.140625q-1.703125 -2.140625 -1.703125 -7.640625q0 -5.390625 1.875 -7.75q1.546875 -1.953125 4.3125305 -1.953125zm0 3.03125q-0.6562805 0 -1.1875305 0.421875q-0.515625 0.421875 -0.796875 1.515625q-0.375 1.421875 -0.375 4.78125q0 3.359375 0.328125 4.609375q0.34375 1.25 0.859375 1.671875q0.515625 0.421875 1.1719055 0.421875q0.671875 0 1.1875 -0.421875q0.515625 -0.421875 0.8125 -1.515625q0.375 -1.40625 0.375 -4.765625q0 -3.359375 -0.34375 -4.609375q-0.34375 -1.265625 -0.859375 -1.6875q-0.5 -0.421875 -1.171875 -0.421875z" fill-rule="nonzero"/><path fill="#000000" fill-opacity="0.0" d="m754.9134 306.0l94.74017 0l0 51.716522l-94.74017 0z" fill-rule="evenodd"/><path fill="#3c78d8" d="m777.39777 337.20938l0 3.390625l-12.828125 0q0.21875 -1.921875 1.25 -3.640625q1.046875 -1.734375 4.125 -4.578125q2.46875 -2.3125 3.03125 -3.125q0.75 -1.140625 0.75 -2.25q0 -1.21875 -0.65625 -1.875q-0.65625 -0.65625 -1.8125 -0.65625q-1.140625 0 -1.828125 0.6875q-0.671875 0.6875 -0.78125 2.296875l-3.640625 -0.375q0.328125 -3.015625 2.046875 -4.328125q1.71875 -1.3125 4.296875 -1.3125q2.8125 0 4.421875 1.53125q1.625 1.515625 1.625 3.78125q0 1.28125 -0.46875 2.453125q-0.453125 1.15625 -1.453125 2.4375q-0.671875 0.84375 -2.40625 2.4375q-1.71875 1.578125 -2.1875 2.109375q-0.453125 0.515625 -0.75 1.015625l7.265625 0zm11.824951 3.390625l-3.65625 0l0 -13.78125q-2.0 1.875 -4.71875 2.765625l0 -3.3125q1.4375 -0.46875 3.109375 -1.78125q1.671875 -1.3125 2.296875 -3.046875l2.96875 0l0 19.15625zm6.246765 0l0 -3.65625l3.671875 0l0 3.65625l-3.671875 0zm7.406006 0l0 -3.65625l3.671875 0l0 3.65625l-3.671875 0zm6.499695 -5.0625l3.546875 -0.4375q0.171875 1.359375 0.90625 2.078125q0.75 0.71875 1.796875 0.71875q1.125 0 1.90625 -0.859375q0.78125 -0.859375 0.78125 -2.328125q0 -1.375 -0.75 -2.171875q-0.734375 -0.8125 -1.8125 -0.8125q-0.703125 0 -1.671875 0.265625l0.40625 -2.96875q1.484375 0.03125 2.265625 -0.640625q0.78125 -0.6875 0.78125 -1.828125q0 -0.953125 -0.578125 -1.53125q-0.578125 -0.578125 -1.53125 -0.578125q-0.921875 0 -1.59375 0.65625q-0.65625 0.65625 -0.8125 1.90625l-3.359375 -0.578125q0.34375 -1.734375 1.046875 -2.765625q0.71875 -1.03125 1.984375 -1.625q1.265625 -0.59375 2.84375 -0.59375q2.703125 0 4.328125 1.71875q1.34375 1.40625 1.34375 3.171875q0 2.515625 -2.75 4.015625q1.640625 0.34375 2.609375 1.578125q0.984375 1.21875 0.984375 2.9375q0 2.515625 -1.828125 4.296875q-1.828125 1.765625 -4.5625 1.765625q-2.59375 0 -4.296875 -1.484375q-1.703125 -1.5 -1.984375 -3.90625zm21.137451 -14.09375q2.78125 0 4.34375 1.96875q1.859375 2.34375 1.859375 7.78125q0 5.40625 -1.875 7.78125q-1.546875 1.953125 -4.328125 1.953125q-2.78125 0 -4.484375 -2.140625q-1.703125 -2.140625 -1.703125 -7.640625q0 -5.390625 1.875 -7.75q1.546875 -1.953125 4.3125 -1.953125zm0 3.03125q-0.65625 0 -1.1875 0.421875q-0.515625 0.421875 -0.796875 1.515625q-0.375 1.421875 -0.375 4.78125q0 3.359375 0.328125 4.609375q0.34375 1.25 0.859375 1.671875q0.515625 0.421875 1.171875 0.421875q0.671875 0 1.1875 -0.421875q0.515625 -0.421875 0.8125 -1.515625q0.375 -1.40625 0.375 -4.765625q0 -3.359375 -0.34375 -4.609375q-0.34375 -1.265625 -0.859375 -1.6875q-0.5 -0.421875 -1.171875 -0.421875z" fill-rule="nonzero"/><path fill="#000000" fill-opacity="0.0" d="m314.28348 306.0l92.944855 0l0 51.716522l-92.944855 0z" fill-rule="evenodd"/><path fill="#3c78d8" d="m333.76785 340.6l-3.65625 0l0 -13.78125q-2.0 1.875 -4.71875 2.765625l0 -3.3125q1.4375 -0.46875 3.109375 -1.78125q1.671875 -1.3125 2.296875 -3.046875l2.96875 0l0 19.15625zm13.353577 0l-3.65625 0l0 -13.78125q-2.0 1.875 -4.71875 2.765625l0 -3.3125q1.4375 -0.46875 3.109375 -1.78125q1.671875 -1.3125 2.296875 -3.046875l2.96875 0l0 19.15625zm6.2467957 0l0 -3.65625l3.671875 0l0 3.65625l-3.671875 0zm7.4059753 0l0 -3.65625l3.671875 0l0 3.65625l-3.671875 0zm15.98407 0l-3.65625 0l0 -13.78125q-2.0 1.875 -4.71875 2.765625l0 -3.3125q1.4375 -0.46875 3.109375 -1.78125q1.671875 -1.3125 2.296875 -3.046875l2.96875 0l0 19.15625zm17.856201 -14.40625l-3.53125 0.390625q-0.125 -1.09375 -0.671875 -1.609375q-0.546875 -0.53125 -1.421875 -0.53125q-1.15625 0 -1.96875 1.046875q-0.796875 1.046875 -1.0 4.328125q1.359375 -1.609375 3.390625 -1.609375q2.296875 0 3.921875 1.75q1.640625 1.734375 1.640625 4.5q0 2.921875 -1.71875 4.703125q-1.71875 1.765625 -4.40625 1.765625q-2.890625 0 -4.765625 -2.25q-1.859375 -2.25 -1.859375 -7.359375q0 -5.25 1.9375 -7.5625q1.953125 -2.3125 5.046875 -2.3125q2.171875 0 3.59375 1.21875q1.4375 1.21875 1.8125 3.53125zm-8.28125 7.96875q0 1.796875 0.8125 2.765625q0.828125 0.96875 1.875 0.96875q1.015625 0 1.6875 -0.796875q0.6875 -0.796875 0.6875 -2.609375q0 -1.859375 -0.734375 -2.71875q-0.71875 -0.875 -1.8125 -0.875q-1.0625 0 -1.796875 0.828125q-0.71875 0.828125 -0.71875 2.4375z" fill-rule="nonzero"/></g></svg>